<svg xmlns="http://www.w3.org/2000/svg" id="accounting" width="1080" height="1080" version="1.0" viewBox="0 0 810 810"><defs><clipPath id="a"><path d="M209 177.719h314V586H209Zm0 0"/></clipPath><clipPath id="b"><path d="M404 334h220.32v298.219H404Zm0 0"/></clipPath><clipPath id="c"><path d="M185.57 224H484v33H185.57Zm0 0"/></clipPath></defs><g clip-path="url(#a)"><path fill="#e3e4e2" d="M209.078 177.734h313.39v407.457h-313.39Zm0 0"/></g><g clip-path="url(#b)"><path fill="#0093b9" d="M428.453 334.45h172.363c.77 0 1.54.038 2.305.113a22.46 22.46 0 0 1 2.281.34 23.42 23.42 0 0 1 4.41 1.335 24.023 24.023 0 0 1 4.063 2.172c.64.43 1.258.887 1.855 1.375a22.887 22.887 0 0 1 1.707 1.55 23.772 23.772 0 0 1 1.551 1.708 23.42 23.42 0 0 1 1.371 1.855 23.068 23.068 0 0 1 2.172 4.063 23.44 23.44 0 0 1 1.34 4.41 23.603 23.603 0 0 1 .45 4.586v250.742a23.603 23.603 0 0 1-.45 4.586 23.44 23.44 0 0 1-.562 2.238 22.82 22.82 0 0 1-.778 2.172 23.068 23.068 0 0 1-2.172 4.063 23.42 23.42 0 0 1-1.37 1.855 23.772 23.772 0 0 1-1.552 1.707 23.773 23.773 0 0 1-1.707 1.551 23.42 23.42 0 0 1-1.855 1.371c-.64.43-1.297.824-1.977 1.188-.68.363-1.375.691-2.086.988a23.42 23.42 0 0 1-4.41 1.336c-.754.148-1.515.262-2.28.34-.767.074-1.536.113-2.306.113H428.453c-.77 0-1.539-.039-2.305-.113a24.893 24.893 0 0 1-2.28-.34 22.85 22.85 0 0 1-2.24-.559 24.74 24.74 0 0 1-2.171-.777 24.212 24.212 0 0 1-2.086-.988c-.68-.364-1.34-.758-1.976-1.188a23.42 23.42 0 0 1-1.856-1.37 23.773 23.773 0 0 1-1.707-1.552 22.887 22.887 0 0 1-2.922-3.562 23.636 23.636 0 0 1-2.176-4.063c-.293-.71-.55-1.437-.773-2.172a22.326 22.326 0 0 1-.563-2.238 24.893 24.893 0 0 1-.34-2.281 23.894 23.894 0 0 1-.113-2.305V357.957c0-.77.04-1.539.114-2.305.078-.765.191-1.527.34-2.28.148-.755.335-1.5.562-2.24.223-.737.48-1.46.773-2.171.297-.711.625-1.406.989-2.086.363-.68.757-1.34 1.187-1.977a22.887 22.887 0 0 1 2.922-3.563 22.887 22.887 0 0 1 1.707-1.55 23.387 23.387 0 0 1 3.832-2.559 23.534 23.534 0 0 1 8.777-2.664 23.894 23.894 0 0 1 2.305-.113Zm0 0"/></g><path fill="#f6bc1b" d="M436.285 444.148h31.34v31.344h-31.34ZM498.965 444.148h31.34v31.344h-31.34Zm0 0"/><path fill="#56c3c1" d="M436.285 365.793h156.7v47.012h-156.7Zm0 0"/><path fill="#f6bc1b" d="M561.645 444.148h31.34v31.344h-31.34ZM436.285 506.836h31.34v31.34h-31.34ZM498.965 506.836h31.34v31.34h-31.34ZM561.645 506.836h31.34v31.34h-31.34ZM436.285 569.52h31.34v31.343h-31.34ZM498.965 569.52h31.34v31.343h-31.34ZM561.645 569.52h31.34v31.343h-31.34Zm0 0"/><g clip-path="url(#c)"><path fill="#0093b9" d="M467.625 256.094H201.242c-1.031 0-2.047-.102-3.058-.301a15.739 15.739 0 0 1-2.938-.895 15.685 15.685 0 0 1-2.71-1.445 16.005 16.005 0 0 1-2.376-1.95 16.005 16.005 0 0 1-1.95-2.374 15.83 15.83 0 0 1-1.444-2.711c-.395-.95-.692-1.93-.891-2.941a15.432 15.432 0 0 1 0-6.114 15.685 15.685 0 0 1 2.336-5.648 15.807 15.807 0 0 1 1.95-2.375 15.704 15.704 0 0 1 8.023-4.29c1.011-.198 2.027-.3 3.058-.3h266.383l15.672 15.672Zm0 0"/></g><path fill="#f6bc1b" d="M334.434 295.27h-62.68c-1.04 0-2.04-.2-2.996-.594a7.771 7.771 0 0 1-2.543-1.7l-31.34-31.343a7.771 7.771 0 0 1-1.7-2.543 7.793 7.793 0 0 1-.593-2.996V224.75h15.668v28.098l26.75 26.75h59.434Zm0 0"/><path fill="#0093b9" d="M240.414 326.613h125.36v94.028h-125.36Zm0 0"/><path fill="#56c3c1" d="m278.273 393.645-13.035-8.692 15.668-23.508a7.765 7.765 0 0 1 1.961-2.023c.383-.277.79-.516 1.219-.719.43-.2.871-.363 1.328-.484.457-.121.922-.2 1.395-.239a8.138 8.138 0 0 1 1.414.016c.472.05.933.14 1.39.274.453.128.89.304 1.317.515l24.332 12.164 12.164-24.332 14.015 7.008-15.671 31.344c-.227.46-.5.894-.817 1.3a7.905 7.905 0 0 1-1.055 1.114 7.996 7.996 0 0 1-2.656 1.515 7.746 7.746 0 0 1-3.035.379 7.65 7.65 0 0 1-1.512-.257 7.75 7.75 0 0 1-1.433-.547l-25.157-12.578Zm0 0"/><path fill="#b2b1b4" d="M271.754 444.148h94.02v15.672h-94.02ZM240.414 475.492h125.36v15.672h-125.36ZM240.414 506.836h125.36v15.672h-125.36ZM240.414 538.176h109.688v15.672H240.414ZM240.414 444.148h15.672v15.672h-15.672Zm0 0"/></svg>