<svg xmlns="http://www.w3.org/2000/svg" id="adoption" width="1080" height="1080" version="1.0" viewBox="0 0 810 810"><defs><clipPath id="a"><path d="M284 187.484h112V347H284Zm0 0"/></clipPath><clipPath id="b"><path d="M263 404h397.973v88H263Zm0 0"/></clipPath><clipPath id="c"><path d="M532 404h93v218.484h-93Zm0 0"/></clipPath><clipPath id="d"><path d="M183 404h365v218.484H183Zm0 0"/></clipPath><clipPath id="e"><path d="M148.723 404H548v88H148.723Zm0 0"/></clipPath><clipPath id="f"><path d="M148.723 404H502v88H148.723Zm0 0"/></clipPath></defs><path fill="#de9760" d="M434.352 418.078c.68 4.055-73.739-.488-93.102-1.738-19.348 1.25-93.738 5.793-93.086 1.738.75-4.672-.824-25.203 8.75-32.668 9.492-7.465 8.086-22.863 7.746-39.183-.226-11.563 4.39-14.008 8.973-22.637 1.879-3.55 3.75-8.145 5.277-14.844l-.781-38.453 60.773-32.441.07-6.059 64.348 38.492-.507 38.453c.09.364.175.711.253 1.051 2.704 10.883 6.297 15.973 9.2 20.324 2.93 4.395 5.164 8.02 5.07 16.106-.07 5.226-.254 10.367-.149 15.18.208 10.195 1.688 18.93 8.176 24.003 9.633 7.473 8.207 28.012 8.989 32.676Zm0 0"/><path fill="#b66f3e" fill-opacity=".259" d="M386.023 303.926c-9.828 28.039-27.078 47.05-46.234 47.05-17.555 0-34.305-23.175-44.277-50.765-8.364-23.106-11.965-49.313-7.32-67.598 3.425-13.484 8.058-22.523 13.851-28.57.008-.012.008-.012.016-.02 9.652-10.066 22.488-11.789 38.27-11.789 12.374 0 26.128 3.168 36.66 11.301 9.14 7.047 15.835 17.828 17.085 33.504 1.942 24.379-1.328 47.738-8.05 66.887Zm0 0"/><g clip-path="url(#a)"><path fill="#eaa771" d="M387.152 299.176c-10.101 28.039-27.832 47.05-47.527 47.05-18.043 0-35.262-23.175-45.512-50.765-8.601-23.106-12.304-49.313-7.523-67.598 3.523-13.484 8.285-22.527 14.234-28.57.008-.012.008-.012.02-.02 9.918-10.066 23.12-11.789 39.336-11.789 12.722 0 26.86 3.168 37.687 11.301 9.39 7.047 16.278 17.828 17.563 33.504 1.992 24.387-1.364 47.738-8.278 66.887Zm0 0"/></g><path fill="#b66f3e" d="M297.695 246.191c2.938 2.805 12.016 6.848 18.54 3.524 6.519-3.313 3.73-5.149 9.738-10.926 6.007-5.777 5.285-12.613-1.036-15.52-6.32-2.906-9.949-1.664-13.667 1.965-3.723 3.63-11.707 3.524-14.715 8.09-3.008 4.57-1.477 10.38 1.14 12.867ZM382.387 246.191c-2.938 2.805-12.016 6.848-18.54 3.524-6.519-3.313-3.73-5.149-9.738-10.926-6.007-5.777-5.285-12.613 1.036-15.52 6.324-2.906 9.949-1.664 13.671 1.965 3.73 3.63 11.704 3.524 14.711 8.09 3 4.57 1.47 10.38-1.14 12.867Zm0 0"/><path fill="#b66f3e" d="M292.145 289.86c-8.598-23.11-10.336-43.712-5.555-61.997 3.523-13.484 8.285-22.527 14.234-28.57-3.87 5.008-12.355 27.16-13.758 42.227-1.222 13.304 7.07 30.957 5.079 48.34ZM388.938 293.895c-2.81-16.372 6.042-39.211 4.574-53.618-1.61-15.695-10.653-33.547-15.645-41.492 9.39 7.047 16.278 17.828 17.563 33.504 1.992 24.387.418 42.465-6.493 61.606Zm0 0"/><path fill="#3a2725" d="M373.117 307.266c-3.754 5.718-3.73 22.039-14.875 30.566-4.203 3.207-10.012 5.324-18.199 5.324-7.695 0-13.36-1.847-17.602-4.777-12.242-8.465-12.78-26.004-16.851-34.625-5.496-11.617-6.219-11.902-4.043-13.418 2.816-1.965 4.867 2.531 5.703 9.273.828 6.746 5.793 14.829 13.879 14.829.555 0 1.094-.055 1.617-.168 2.852-.575 5.219-2.618 7.442-4.856 3.296-3.297 6.28-6.992 10.054-6.992 3.973 0 6.094 3.402 8.703 6.594 2.035 2.504 4.383 4.879 8.157 5.394.496.07 1.027.113 1.582.113 10.054 0 12.078-9.77 14.156-14.851 2.07-5.082 2.02-9.535 5.355-8.465 2.594.816.106 8.18-5.078 16.059Zm0 0"/><path fill="#b07c39" d="M301.121 236.832c3.262-3.445 8.39-6.84 11.383-5.715 2.988 1.121 5.433 4.41 5.867 5.043.426.637 1.828 2.621 1.445 3.863-.382 1.247-4.707 4.57-9.086 4.36-4.375-.207-5.359-1.895-7.921-4.098-2.567-2.2-1.688-3.453-1.688-3.453Zm0 0"/><path fill="#261c21" d="M310.703 244.723c-.93 0-1.887-.114-2.851-.375l-.09-.024c-3.27-.906-6.032-3.332-8.2-7.195l-.136-.254.226-.172c.582-.473 1.192-1.004 1.832-1.558 2.801-2.438 5.965-5.196 9.383-4.836.852.086 1.817.441 2.863 1.07l.086.05c2.895 1.75 5.704 5.071 6.27 7.395.184.75.129 1.367-.156 1.844-.907 1.473-4.758 4.055-9.227 4.055Zm-2.61-1c5.157 1.34 10.286-1.809 11.255-3.403.191-.312.214-.765.078-1.332-.516-2.12-3.203-5.281-5.899-6.933l-.078-.043c-.988-.602-1.887-.95-2.66-1.028-3.129-.32-6.184 2.332-8.879 4.672-.562.496-1.101.969-1.633 1.395 2.059 3.574 4.645 5.808 7.688 6.637h.086Zm0 0"/><path fill="#261c21" d="M303.293 237.5c.156 2.344 1.863 4.414 4.629 6.527-2.809-.757-5.688-2.8-8.07-7.054 3.113-2.489 6.937-6.743 10.972-6.328.871.09 3.32 1.445 4.297 2.039-.957-.227-4.09-.707-4.695-.707-2.766 0-5.113 2.941-7.133 5.523Zm0 0"/><path fill="#261c21" d="M316.832 237.398c0 .368-.035.73-.105 1.09a5.578 5.578 0 0 1-2.379 3.559 5.476 5.476 0 0 1-2.016.836c-.36.074-.723.11-1.09.11-.367 0-.73-.036-1.09-.11a5.432 5.432 0 0 1-2.015-.836 5.354 5.354 0 0 1-.848-.695 5.184 5.184 0 0 1-.695-.848 5.596 5.596 0 0 1-.52-.965 5.812 5.812 0 0 1-.316-1.05 5.663 5.663 0 0 1 .316-3.231 5.632 5.632 0 0 1 2.063-2.512 5.578 5.578 0 0 1 3.105-.941c.367 0 .73.035 1.09.105.36.074.711.18 1.05.32a5.577 5.577 0 0 1 3.023 3.027c.142.34.247.688.322 1.048.07.363.105.726.105 1.093Zm0 0"/><path fill="#fff" d="M312.492 236.32c0 .254-.047.504-.144.743a2 2 0 0 1-.422.628 1.946 1.946 0 0 1-2.742 0 2 2 0 0 1-.422-.629 1.947 1.947 0 0 1-.145-.742c0-.257.047-.507.145-.746a2 2 0 0 1 .422-.629 1.946 1.946 0 0 1 2.742 0 2 2 0 0 1 .422.63c.097.238.144.488.144.745Zm0 0"/><path fill="#b07c39" d="M378.953 236.832c-3.262-3.445-8.39-6.84-11.383-5.715-2.992 1.121-5.433 4.41-5.867 5.043-.426.637-1.828 2.621-1.445 3.863.383 1.247 4.703 4.57 9.086 4.36 4.375-.207 5.36-1.895 7.922-4.098 2.574-2.21 1.687-3.453 1.687-3.453Zm0 0"/><path fill="#261c21" d="M369.371 244.723c-4.469 0-8.32-2.582-9.219-4.055-.285-.469-.336-1.094-.156-1.844.567-2.332 3.383-5.644 6.27-7.402l.09-.055c1.042-.625 2.007-.98 2.859-1.07 3.41-.356 6.582 2.402 9.383 4.84.644.554 1.25 1.086 1.836 1.554l.222.176-.136.25c-2.176 3.875-4.93 6.293-8.2 7.196l-.078.027c-.976.27-1.933.383-2.87.383Zm-2.836-12.676c-2.687 1.652-5.37 4.812-5.887 6.933-.136.567-.113 1.02.079 1.333.964 1.59 6.09 4.742 11.246 3.402l.035-.035h.094c3.035-.836 5.625-3.063 7.687-6.64a59.646 59.646 0 0 1-1.637-1.392c-2.695-2.34-5.746-4.992-8.875-4.671-.777.078-1.672.425-2.664 1.027Zm0 0"/><path fill="#261c21" d="M376.79 237.5c-.157 2.344-1.864 4.414-4.626 6.527 2.809-.757 5.684-2.8 8.066-7.054-3.113-2.489-6.937-6.743-10.972-6.328-.871.09-3.32 1.445-4.297 2.039.957-.227 4.09-.707 4.695-.707 2.766 0 5.106 2.941 7.133 5.523Zm0 0"/><path fill="#261c21" d="M374.434 237.398a5.666 5.666 0 0 1-.426 2.141c-.14.34-.313.66-.52.965-.203.309-.433.59-.695.848-.258.261-.54.492-.848.695a5.432 5.432 0 0 1-2.016.836c-.359.074-.722.11-1.09.11-.366 0-.73-.036-1.089-.11a5.476 5.476 0 0 1-2.016-.836 5.536 5.536 0 0 1-1.543-1.543 5.578 5.578 0 0 1-.941-3.106c0-.367.035-.73.105-1.093.075-.36.18-.707.32-1.047.141-.34.313-.664.516-.969.204-.305.438-.586.696-.848.261-.257.543-.492.847-.695.305-.203.63-.375.965-.516.34-.14.692-.246 1.051-.32a5.663 5.663 0 0 1 2.18 0 5.578 5.578 0 0 1 3.559 2.379 5.478 5.478 0 0 1 .836 2.016c.07.363.109.726.109 1.093Zm0 0"/><path fill="#fff" d="M371.457 236.32c0 .254-.047.504-.148.743a1.99 1.99 0 0 1-.418.628 1.946 1.946 0 0 1-3.164-.629 1.95 1.95 0 0 1 0-1.488 1.937 1.937 0 0 1 1.793-1.195 1.946 1.946 0 0 1 1.371.566c.18.184.32.395.418.63.101.238.148.488.148.745Zm0 0"/><path fill="#c98959" d="M432.16 282.063c-7.18 11.613-7.73 8.3-11.05 19.914-3.313 11.617-23.758 16.593-29.278 1.105-.2-.555-.375-1.129-.531-1.73-4.184-16.07 6.531-46.946 4.398-61.875-2.207-15.485-13.668-35.497-17.535-40.473 4.223 3.176 8.277 5.969 12.129 8.543.008 0 .008.008.008.008 8.226 5.507 15.582 10.05 21.972 15.324 9.391 7.742 8.844 16.59 19.887 25.437 11.043 8.856 7.184 22.133 0 33.746Zm0 0"/><path fill="#f1b790" d="M341.102 258.05c10.347 0 18.843 7.72 20.062 17.794 1.215 10.074-.828 31.422-8.742 31.422-3.79 0-5.293-6.559-12.598-6.559-7.644 0-9.07 6.613-11.8 6.613-4.165 0-8.52-10.851-8.922-16.66-.688-9.598-.852-32.61 22-32.61Zm0 0"/><path fill="#423231" d="M356.613 279.176c0 .433-.066.914-.207 1.418-.554 2.05-2.164 4.652-4.254 7.07 0 0 0 .012-.007.012-3.024 3.515-7.442 7.246-11.043 7.898a5.59 5.59 0 0 1-1.059.098c-.34 0-.7-.035-1.063-.113-3.433-.688-7.714-4.45-10.921-7.754-2.172-2.235-3.844-4.73-4.391-7.055-.129-.54-.2-1.07-.2-1.582 0-4.43 2.208-9.953 17.13-9.953 13.8.008 16.015 4.984 16.015 9.96Zm0 0"/><path fill="#261c21" d="M336.492 283.465c0 4.48-4.527 5.07-8.441 4.348-2.176-2.235-3.844-4.731-4.39-7.055.78.234 1.554.48 2.085.652 1.54.516 4.61-2.043 6.652-2.043 2.051 0 4.094 2.043 4.094 4.098ZM356.398 280.602c-.558 2.054-2.168 4.656-4.253 7.074 0 0 0 .008-.008.008-4.043.914-9.114.523-9.114-4.211 0-2.055 2.043-4.098 4.098-4.098 2.043 0 5.11 2.559 6.649 2.043.652-.227 1.671-.527 2.628-.816ZM341.102 295.582a5.59 5.59 0 0 1-1.059.098c-.34 0-.7-.035-1.063-.114.036-1.324.094-2.644.192-3.96.172-2.22.41-4.426.871-6.645.46 2.219.684 4.426.867 6.644.086 1.325.156 2.645.192 3.977Zm0 0"/><path fill="#fff" d="M326.598 275.293c.191-.816.73-1.531 1.347-2.094a7.701 7.701 0 0 1 2.098-1.351c1.504-.688 3.094-.965 4.66-1.114a25.607 25.607 0 0 1 4.676.012c1.55.156 3.078.406 4.574.867l-.008.176c-1.539.34-3.043.496-4.539.711-1.496.176-2.972.367-4.426.574-1.453.211-2.87.48-4.242.785-.695.149-1.367.34-2.035.555a8.271 8.271 0 0 0-2 .957Zm0 0"/><path fill="#c98959" d="M289.773 301.352c-.007.035-.02.07-.027.093-.05.22-.113.438-.191.653-.094.332-.2.664-.313.984-5.523 15.488-25.965 10.512-29.277-1.105-3.313-11.614-3.871-8.301-11.05-19.914-7.185-11.614-11.056-24.891 0-33.739 11.05-8.847 10.491-17.695 19.886-25.437.293-.235.582-.48.875-.723 5.984-4.863 12.012-9.059 19.078-14.086 3.695-2.637 7.672-5.5 12.078-8.805-3.867 4.977-13.258 24.72-15.469 40.204-2.12 14.937 8.594 45.804 4.41 61.875Zm0 0"/><path fill="#b66f3e" fill-opacity=".259" d="M432.16 282.063c-7.18 11.613-7.73 8.3-11.05 19.914-3.313 11.617-23.758 16.593-29.278 1.105-.2-.555-.375-1.129-.531-1.73.445.277.992.757 1.637 1.453 8.492 9.125 21.753 4.148 23.824-1.043 2.07-5.188 2.277-3.942 9.32-16.801 7.055-12.867 6.844-22.602 6.844-26.91 0-4.305-8.496-9.797-11.192-13.66-2.695-3.86-7.66-8.996-9.738-13.778-1.808-4.195-13.297-14.218-21.695-23.047 8.226 5.504 15.582 10.047 21.972 15.32 9.391 7.743 8.844 16.59 19.887 25.438 11.043 8.848 7.184 22.125 0 33.738ZM289.773 301.352c-.007.035-.02.07-.027.093-.05.22-.113.438-.191.653-.094.332-.2.664-.313.984-5.523 15.488-25.965 10.512-29.277-1.105-3.313-11.614-3.871-8.301-11.05-19.914-7.185-11.614-11.056-24.891 0-33.739 11.05-8.847 10.491-17.695 19.886-25.437.293-.235.582-.48.875-.723 5.984-4.863 12.012-9.059 19.078-14.086-7.824 8.047-14.922 14.078-16.617 18.02-2.078 4.785-10.114 14.433-12.809 18.293-2.683 3.863-11.191 9.355-11.191 13.66 0 4.308-1.078 12.031 6.445 24.629 6.32 10.582 6.992 13.851 9.711 19.082 2.574 4.957 15.332 10.168 23.828 1.043.66-.696 1.207-1.168 1.652-1.453Zm0 0"/><path fill="#dc5c5b" d="M358.23 337.832c-1.468 7.07-5.476 12.883-14.44 14.066a25.424 25.424 0 0 1-3.556.227c-10.957 0-15.879-6.082-17.8-13.746-1.547-6.188-1.157-13.399-.41-19.297.218-1.742.468-3.375.714-4.828 2.844-.574 5.215-2.621 7.442-4.848 5.73-.71 12.644-.816 18.765-.398 1.637 2.008 3.477 3.941 6.086 4.887a9.84 9.84 0 0 0 2.063.515c.304 1.469.61 3.098.879 4.828.937 5.75 1.504 12.625.257 18.594Zm0 0"/><path fill="#ef8080" d="M337.727 350.168c-10.067 0-14.825-10.344-14.825-21.559 2.93 9.274 7.59 16.895 14.825 21.559Zm0 0"/><path fill="#c74847" d="M357.98 319.23c-.27-1.73-.574-3.359-.878-4.828-3.766-.523-6.122-2.898-8.157-5.402-6.12-.418-13.035-.316-18.765.398-2.227 2.227-4.598 4.274-7.442 4.848a128.555 128.555 0 0 0-.715 4.828c2.786-2.523 8.88-3.785 12.872-3.133 4.765.782 2.582 12.676 4.921 14.493 2.336 1.82 1.606-12.372 3.86-13.938 1.062-.73 3.601-1.293 6.418-1.016 1.34.383 4.355 1.399 5.375 3.774 1.05 2.465 2 10.57 1.293 15.66-1.207 8.719-5.496 15.332-12.973 16.984 8.965-1.183 12.973-6.996 14.441-14.066 1.247-5.969.68-12.844-.25-18.602Zm-7.757-3.734h.027-.027Zm0 0"/><path fill="#f3b578" d="M414.441 404.41h-55.566c-1.504-1.965-2.34-4.262-2.34-6.601 0-9.23 6.254-16.262 22.235-16.262 15.992 0 34 7.344 35.66 16.262.437 2.304.672 4.347.011 6.601Zm0 0"/><path fill="#c98959" d="M369.094 404.41h-2.008a32.686 32.686 0 0 1-.29-1.574 22.961 22.961 0 0 1-.233-4.07c.035-1.348.19-2.688.445-4.004.258-1.305.597-2.602 1.101-3.828l.114.043c-.328 1.261-.504 2.57-.582 3.863a24.135 24.135 0 0 0 .078 3.87c.14 1.282.383 2.56.73 3.778.184.645.399 1.36.645 1.922ZM387.762 404.41h-1.418c.453-1.687.715-3.496.828-5.289.058-1.016.078-2.062.023-3.078-.05-1.027-.144-2.055-.39-3.055l.132-.043c.356.985.563 2.008.731 3.035.164 1.036.258 2.106.312 3.149.079 1.742.036 3.594-.218 5.281ZM405.535 404.41h-1.512c.34-1.41.497-2.644.532-4 .015-.8-.012-1.629-.07-2.437a21.789 21.789 0 0 0-.325-2.418l.305-.086c.27.781.48 1.582.652 2.398.176.82.313 1.664.403 2.5.136 1.32.171 2.633.015 4.043Zm0 0"/><path fill="#f3b578" d="M255.156 404.41h55.563c1.504-1.965 2.34-4.262 2.34-6.601 0-9.23-6.25-16.262-22.235-16.262-15.992 0-34 7.344-35.66 16.262-.441 2.304-.68 4.347-.008 6.601Zm0 0"/><path fill="#c98959" d="M300.492 404.41h2.012a32.5 32.5 0 0 0 .285-1.574c.2-1.348.277-2.723.234-4.07a24.969 24.969 0 0 0-.441-4.004c-.262-1.305-.602-2.602-1.105-3.828l-.114.043c.332 1.261.504 2.57.582 3.863a23.69 23.69 0 0 1-.078 3.87 22.574 22.574 0 0 1-.73 3.778c-.184.645-.399 1.36-.645 1.922ZM281.824 404.41h1.418c-.453-1.687-.715-3.496-.824-5.289a27.905 27.905 0 0 1-.027-3.078c.05-1.027.148-2.055.39-3.055l-.129-.043c-.359.985-.566 2.008-.73 3.035a28.447 28.447 0 0 0-.313 3.149c-.07 1.742-.027 3.594.215 5.281ZM264.05 404.41h1.512a18.692 18.692 0 0 1-.527-4c-.02-.8.008-1.629.067-2.437.07-.809.168-1.625.324-2.418l-.305-.086c-.27.781-.476 1.582-.652 2.398-.176.82-.313 1.664-.41 2.5-.13 1.32-.164 2.633-.008 4.043Zm0 0"/><path fill="#949cab" d="M529.082 408.91c-.156 3.27-.672 6.402-1.644 9.309h-107.93c-.98-2.914-1.485-6.055-1.64-9.336-.184-3.785.12-7.735.745-11.711.653-4.121 1.645-8.266 2.817-12.266 1.113-3.812 2.394-7.492 3.68-10.894 2.695-7.14 5.452-13.075 6.878-16.469.2-.477.364-.945.512-1.426.48-1.547.672-3.09.66-4.629a19.865 19.865 0 0 0-.426-3.863 29.936 29.936 0 0 0-.73-2.852c-.008-.02-.008-.02-.016-.035a57.307 57.307 0 0 0-1.375-3.933c-.582-1.489-1.191-2.957-1.765-4.41a17.477 17.477 0 0 1-.227-.575c-.094-.234-.191-.468-.277-.695-.766-1.984-1.418-3.934-1.774-5.84a11.746 11.746 0 0 1-.191-1.582c-.59-8.473 6.008-18.601 7.61-22.418.023-.062.042-.113.07-.176.03-.093.066-.183.101-.27 1.402-4.245-.531-12.886-1.32-23.456-.2-2.633-.14-4.93.086-6.934.027-.234.062-.46.086-.687.07-.45.133-.88.218-1.293.063-.297.122-.586.184-.871.078-.375.172-.73.277-1.078.098-.36.2-.7.313-1.02.105-.277.191-.54.297-.781.058-.149.12-.297.183-.438.102-.25.215-.484.329-.722 0-.008 0-.008.007-.016 0 0 .012 0 .012-.008.895-1.8 1.91-2.8 2.64-3.062 1.821-.645 4.872 1.172 10.192 7.117 5.262 5.879 6.191 12.473 8.863 12.473.164 0 .336-.008.528-.016.55-.035 1.203-.113 1.957-.219.75-.101 1.61-.234 2.55-.371h.008c.965-.14 2.035-.297 3.192-.437.633-.07 1.293-.149 1.98-.22.219-.015.426-.042.653-.058.75-.062 1.523-.113 2.312-.156.29-.02.574-.02.871-.035a56.353 56.353 0 0 1 2.192-.043h.363c1.047 0 2.148.043 3.27.113.34.016.687.043 1.027.07.043.008.086.008.129.016 1.105.078 2.226.2 3.304.313.047 0 .098.007.14.02.618.065 1.227.128 1.825.206 1.27.149 2.473.305 3.559.434.191.02.383.047.566.07.719.09 1.371.168 1.938.219.636.062 1.164.094 1.574.105.441 0 .808-.203 1.156-.566 1.723-1.82 3.176-7.117 7.703-11.91 6.324-6.7 8.375-7.77 10.192-7.118.425.149.941.547 1.468 1.211.395.477.793 1.094 1.168 1.852.008.008.008.008.008.016 1.305 2.613 2.375 6.89 2.035 13.035-.02.261-.035.52-.054.8-.817 10.961-2.868 19.836-1.164 23.899 1.625 3.879 8.375 14.215 7.582 22.75v.008c-.036.418-.094.836-.164 1.246-.368 1.922-1.028 3.894-1.801 5.906-.215.555-.434 1.121-.66 1.695 0 .008-.008.02-.008.02-.48 1.184-.977 2.383-1.453 3.59-.22.558-.426 1.117-.633 1.672a45.976 45.976 0 0 0-.645 1.87v.009c-.027.07-.054.14-.07.218a30.19 30.19 0 0 0-.871 3.313 20.566 20.566 0 0 0-.426 3.48c-.008.133-.008.254-.008.383-.015 1.574.184 3.16.68 4.742.137.461.313.907.496 1.368 1.434 3.41 4.207 9.386 6.922 16.574a149.871 149.871 0 0 1 3.66 10.847c1.164 3.993 2.164 8.133 2.809 12.25.574 3.957.867 7.899.695 11.676Zm0 0"/><path fill="#737d92" d="M477.535 282.723c-.289 9.59-1.332 20.847-3.738 21.039-3.07.25-3.324-9.16-4.113-21.16.285-.016.574-.016.867-.036a65.749 65.749 0 0 1 2.191-.043h.367c1.043 0 2.149.043 3.27.114.34.02.687.043 1.023.07.047.008.09.008.133.016ZM488.863 283.984c-.226 6.536-.945 12.668-2.554 12.782-2.184.164-2.782-5.575-3.497-13.5 1.27.144 2.47.3 3.555.433.192.016.383.043.567.07.703.086 1.355.157 1.93.215ZM464.727 283.04c-.07 6.054-.61 11.483-2.106 11.718-1.945.312-2.781-4.266-3.644-10.903.75-.105 1.609-.234 2.55-.375h.008a93.959 93.959 0 0 1 3.192-.44Zm0 0"/><path fill="#fff4e2" d="M514.16 280.594c-.02.261-.035.52-.05.8-.82 10.961-2.872 19.836-1.169 23.899-4.8-12.145-9.843-12.895-13.875-16.41 2.008-7.664 10.633-22.809 13.051-21.34.008.008.008.008.008.016 1.305 2.613 2.383 6.902 2.035 13.035ZM432.77 280.594c.02.261.035.52.05.8.82 10.961 2.871 19.836 1.168 23.899 4.801-12.145 9.844-12.895 13.88-16.41-2.013-7.664-10.638-22.809-13.055-21.34-.008.008-.008.008-.008.016-1.305 2.613-2.383 6.902-2.035 13.035Zm0 0"/><path fill="#737d92" d="M454.797 385.934c-.043 1.496-12.992 2.773-33.375-1.02 1.113-3.809 2.39-7.488 3.68-10.89 23.035 6.757 29.746 9.847 29.695 11.91ZM453.309 405.516c.164 1.55-13.418 4.726-35.454 3.375-.18-3.786.125-7.735.75-11.711 26.688 3.906 34.47 6.18 34.704 8.336ZM525.535 384.984c-20.156 3.707-32.941 2.438-32.984.95-.051-2.055 6.594-5.118 29.32-11.797 1.281 3.39 2.55 7.054 3.664 10.847ZM529.074 408.91c-21.793 1.285-35.21-1.863-35.043-3.394.235-2.141 7.938-4.395 34.301-8.282.629 3.957.922 7.899.742 11.676ZM493.55 345.504c.49-6.465-19.609-9.328-19.609-9.328l-20.57 8.535c.102.262.207.504.313.758-6.977 1.816-18.887.39-24.844-9.059.574 1.453 1.183 2.926 1.765 4.414a53.32 53.32 0 0 1 1.375 3.93c.008.02.008.02.016.035.285.95.54 1.899.73 2.856.262 1.285.419 2.566.426 3.863 10.243-3.793 20.739-1.496 28.696 5.226l-.008-.007c3.574 2.75 7.703 4.105 12.015 4.105 4.625 0 9.48-2.32 13.243-5.559 7.652-5.543 17.261-7.246 26.672-3.808 0-.133 0-.254.007-.383.043-1.168.192-2.324.426-3.48.219-1.114.524-2.22.871-3.317.016-.078.043-.14.067-.219v-.007a52.85 52.85 0 0 1 .644-1.872c.211-.554.418-1.113.637-1.667.476-1.211.973-2.41 1.45-3.594-5.99 8.898-17.458 10.3-24.321 8.578ZM461.422 310.652a3.95 3.95 0 0 0-.332-.347c-.008-.012-.008-.012-.016-.02-.992-.957-2.46-1.703-4.652-2.129-7.715-1.515-14.512 3.504-15.399 5.914-.878 2.403.754 10.727 6.426 11.606 2.817.445 6.426.601 9.414-.207 1.664-.219 5.16-1.864 7.73-1.168 1.907.515 2.985 3.914 2.985 3.914.758-3.86-2.156-13.352-6.156-17.563Zm0 0"/><path fill="#404d5c" d="M458.926 322.074c0-2.73-.363-8.289-5-9.004-5.262-.808-8.453 1.864-9.184 4.035-.738 2.176 1.445 6.735 5.695 7.293 2.907.383 4.907-.472 6.41-.843 1.505-.375 2.079-.73 2.079-1.48Zm0 0"/><path fill="#d2cb74" d="M445.266 317.273c.73-1.898 4.07-4.074 7.746-3.464 3.68.609 5.191 4.296 5.402 5.953.207 1.652-.828 2.765-2.226 3.289-1.403.52-4.739 1.945-8.454.023-3.043-1.582-2.59-5.496-2.468-5.8Zm0 0"/><path fill="#282922" d="M455.473 318.941c0 .352-.02.704-.063 1.047-.043.344-.105.68-.191 1.004a6.427 6.427 0 0 1-.305.926 5.649 5.649 0 0 1-.414.812c-.156.25-.324.473-.508.668-.18.196-.37.36-.574.497-.203.132-.41.234-.625.304-.215.067-.43.102-.648.102-.22 0-.438-.035-.653-.102a2.714 2.714 0 0 1-.625-.304c-.199-.137-.39-.301-.574-.497a4.27 4.27 0 0 1-.504-.668 6.431 6.431 0 0 1-.723-1.738 8.464 8.464 0 0 1-.254-2.05c0-.352.024-.7.067-1.044.039-.347.105-.683.187-1.007a6.77 6.77 0 0 1 .309-.926 5.46 5.46 0 0 1 .414-.813c.152-.25.324-.468.504-.664.184-.199.375-.363.574-.496a2.43 2.43 0 0 1 .625-.305 2.067 2.067 0 0 1 1.3 0c.216.067.423.168.626.305.203.133.394.297.574.496.184.196.352.414.508.664.152.25.293.52.414.813.121.293.223.601.305.926.086.324.148.66.191 1.007a8.4 8.4 0 0 1 .063 1.043Zm0 0"/><path fill="#fff" d="M450.516 316.07c0 .176-.032.34-.098.5-.066.16-.16.301-.281.426a1.347 1.347 0 0 1-.426.281c-.16.067-.324.098-.496.098-.176 0-.34-.031-.5-.098-.16-.066-.3-.16-.426-.28a1.347 1.347 0 0 1-.281-.427 1.282 1.282 0 0 1-.098-.5 1.296 1.296 0 0 1 1.305-1.304 1.347 1.347 0 0 1 .922.383 1.296 1.296 0 0 1 .379.922Zm0 0"/><path fill="#737d92" d="M485.516 310.652c.105-.12.21-.234.332-.347.007-.012.007-.012.015-.02.992-.957 2.461-1.703 4.653-2.129 7.714-1.515 14.515 3.504 15.402 5.914.875 2.403-.758 10.727-6.418 11.606-2.816.445-6.426.601-9.418-.207-1.66-.219-5.156-1.864-7.73-1.168-1.903.515-2.98 3.914-2.98 3.914-.767-3.86 2.144-13.352 6.144-17.563Zm0 0"/><path fill="#404d5c" d="M488.012 322.074c0-2.73.367-8.289 5-9.004 5.261-.808 8.453 1.864 9.183 4.035.739 2.176-1.445 6.735-5.695 7.293-2.906.383-4.906-.472-6.41-.843-1.496-.375-2.078-.73-2.078-1.48Zm0 0"/><path fill="#d2cb74" d="M501.672 317.273c-.73-1.898-4.067-4.074-7.746-3.464-3.68.609-5.192 4.296-5.399 5.953-.21 1.652.825 2.765 2.223 3.289 1.395.512 4.742 1.945 8.453.023 3.043-1.582 2.59-5.496 2.469-5.8Zm0 0"/><path fill="#282922" d="M498.133 318.941c0 .352-.02.704-.063 1.047-.043.344-.105.68-.191 1.004a6.428 6.428 0 0 1-.305.926 5.649 5.649 0 0 1-.414.812c-.156.25-.324.473-.508.668-.18.196-.37.36-.574.497-.203.132-.41.234-.625.304-.215.067-.43.102-.648.102-.22 0-.438-.035-.653-.102a2.639 2.639 0 0 1-.625-.304c-.199-.137-.39-.301-.574-.497a4.27 4.27 0 0 1-.504-.668 6.431 6.431 0 0 1-.723-1.738 8.464 8.464 0 0 1-.254-2.05c0-.352.024-.7.067-1.044.04-.347.106-.683.188-1.007a6.77 6.77 0 0 1 .308-.926 5.46 5.46 0 0 1 .414-.813c.153-.25.324-.468.504-.664.184-.199.375-.363.574-.496a2.37 2.37 0 0 1 .625-.305 2.067 2.067 0 0 1 1.3 0c.216.067.423.168.626.305.203.133.395.297.574.496.184.196.352.414.508.664.152.25.293.52.414.813.121.293.223.601.305.926.086.324.148.66.191 1.007a8.4 8.4 0 0 1 .063 1.043Zm0 0"/><path fill="#fff" d="M499.04 316.07a1.347 1.347 0 0 1-.383.926 1.288 1.288 0 0 1-.923.379 1.296 1.296 0 0 1-1.304-1.305 1.28 1.28 0 0 1 .383-.922c.12-.12.261-.214.421-.28a1.3 1.3 0 0 1 .5-.102c.172 0 .34.035.5.101a1.288 1.288 0 0 1 .704.703 1.3 1.3 0 0 1 .101.5Zm0 0"/><path fill="#fff4e2" d="M473.473 344.625c-2.668 3.184-18.059 9.344-21.235-1.852-3.191-11.242 16.93-11.91 21.235-11.91-.207 9.352 0 13.762 0 13.762ZM473.473 344.625c2.672 3.184 18.054 9.344 21.234-1.852 3.191-11.242-16.93-11.91-21.234-11.91.199 9.352 0 13.762 0 13.762Zm0 0"/><path fill="#fff4e2" d="M461.57 347.715c2.461 5.957 7.184 7.601 11.903 7.601 4.722 0 8.445-2.05 10.793-5.644 2.34-3.594 2.035-5.75 2.035-5.75h-22.887Zm0 0"/><path fill="#737d92" d="M457.676 339.586c-1.375-.293-2.742-.617-4.113-.895-1.383-.253-2.75-.539-4.133-.765-2.754-.496-5.52-.922-8.293-1.242-5.551-.664-11.133-1.04-16.715-.926-5.582.02-11.156.523-16.66 1.43-1.375.261-2.758.453-4.121.753-1.356.317-2.73.594-4.086.95-1.348.367-2.715.695-4.063 1.078l-4.008 1.273-.027-.062c10.496-4.028 21.73-5.961 32.95-6.09 11.234-.113 22.448 1.504 33.277 4.445ZM456.945 343.023l-3.507.079-3.493.156c-2.332.105-4.664.246-6.976.46-4.633.41-9.258.985-13.809 1.942a82.087 82.087 0 0 0-13.383 3.758c-2.18.8-4.3 1.75-6.37 2.793-1.055.488-2.055 1.098-3.09 1.644-1.008.582-1.973 1.235-2.973 1.852l-.043-.05c3.773-2.774 7.937-4.985 12.277-6.716 4.348-1.742 8.863-3.011 13.445-3.933 9.18-1.82 18.582-2.313 27.91-2.043ZM459.082 336.977l-3.285-1.192-3.313-1.113c-2.21-.746-4.418-1.469-6.652-2.106-4.46-1.296-8.965-2.453-13.539-3.226a79.595 79.595 0 0 0-13.809-1.383c-1.156-.055-2.312.008-3.468.043-1.168 0-2.317.164-3.473.242-.582.028-1.156.106-1.73.184l-1.731.234c-1.144.184-2.277.445-3.426.672l-.015-.062c4.504-1.254 9.171-1.801 13.843-1.836 4.668-.036 9.329.433 13.93 1.246 9.191 1.66 18.102 4.617 26.703 8.238Zm0 0"/><path fill="#737d92" d="M421.188 342.074c1.39-.469 2.824-.781 4.261-1.101a85.838 85.838 0 0 1 4.34-.715c2.902-.403 5.832-.594 8.762-.73 2.933-.055 5.87-.055 8.8.183l2.192.215 2.184.289 2.164.418a56.76 56.76 0 0 1 2.132.539l-.02.07c-2.858-.594-5.773-.87-8.687-1.012-2.91-.136-5.832-.128-8.753-.035-2.922.098-5.836.29-8.743.586-2.902.301-5.797.696-8.64 1.364Zm0 0"/><path fill="#6f88a4" d="M459.324 338.371c0 .14-.035.262-.113.363a.34.34 0 0 1-.277.149c-.106 0-.2-.051-.278-.149a.6.6 0 0 1-.113-.363c0-.144.039-.266.113-.363.078-.102.172-.153.278-.153.109 0 .203.051.277.153a.56.56 0 0 1 .113.363ZM457.473 341.414c0 .14-.036.262-.114.363-.078.102-.168.153-.277.153-.11 0-.2-.051-.277-.153a.6.6 0 0 1-.114-.363.6.6 0 0 1 .114-.363c.078-.098.168-.149.277-.149.11 0 .2.051.277.149a.576.576 0 0 1 .114.363ZM458.543 334.969a.6.6 0 0 1-.113.363c-.078.098-.168.148-.278.148-.109 0-.199-.05-.277-.148a.6.6 0 0 1-.113-.363c0-.145.039-.262.113-.364.078-.101.168-.152.277-.152.11 0 .2.05.278.152a.592.592 0 0 1 .113.364ZM456.293 337.457c0 .14-.04.262-.117.363a.34.34 0 0 1-.278.149c-.105 0-.199-.051-.273-.149a.578.578 0 0 1-.117-.363c0-.144.039-.266.117-.363.074-.102.168-.153.273-.153.11 0 .204.051.278.153a.563.563 0 0 1 .117.363ZM455.91 345.328c0 .145-.039.266-.117.363a.334.334 0 0 1-.277.153c-.106 0-.2-.051-.274-.153a.563.563 0 0 1-.117-.363c0-.14.04-.262.117-.363a.339.339 0 0 1 .274-.149c.109 0 .203.051.277.149a.578.578 0 0 1 .117.363Zm0 0"/><path fill="#737d92" d="M489.246 339.52c1.348-.395 2.695-.801 4.043-1.176 1.367-.348 2.715-.723 4.09-1.043 2.746-.61 5.512-1.14 8.293-1.567 5.574-.843 11.219-1.218 16.851-1.191 5.637.113 11.282.61 16.82 1.703 1.372.313 2.762.559 4.13.922 1.355.375 2.73.695 4.078 1.113 1.332.453 2.68.88 4 1.36l3.922 1.539-.028.062c-10.484-4.004-21.718-5.918-32.93-6.023-11.214-.137-22.425 1.453-33.257 4.379ZM489.996 342.953l3.504-.2 3.512-.12c2.34-.008 4.687.027 7.027.14 4.688.235 9.356.817 13.973 1.696 4.601.972 9.156 2.234 13.496 4.07a58.25 58.25 0 0 1 6.32 3.125c1.027.574 1.985 1.27 2.977 1.895.965.671 1.886 1.402 2.824 2.09l-.043.05c-3.774-2.758-7.941-4.957-12.277-6.68-4.34-1.722-8.864-2.984-13.438-3.898-9.164-1.844-18.555-2.36-27.883-2.113ZM487.828 336.918l3.192-1.453 3.226-1.383a125.41 125.41 0 0 1 6.594-2.422 102.708 102.708 0 0 1 13.605-3.512c4.63-.777 9.325-1.261 14.028-1.14 1.175 0 2.347.113 3.511.199 1.176.063 2.332.262 3.496.418.582.078 1.157.2 1.73.332l1.724.371c1.14.27 2.25.629 3.382.942l-.02.062c-4.491-1.238-9.163-1.777-13.823-1.793-4.66-.027-9.313.461-13.903 1.277-9.183 1.637-18.097 4.579-26.695 8.168Zm0 0"/><path fill="#737d92" d="M525.742 342.137c-1.453-.219-2.887-.418-4.34-.547-1.441-.168-2.894-.29-4.347-.395-2.903-.207-5.801-.406-8.711-.46-2.906-.137-5.809-.13-8.715-.087l-2.184.063-2.172.121-2.175.164c-.72.086-1.442.176-2.172.246l-.02-.07c2.864-.602 5.785-.899 8.7-1.043 2.917-.149 5.84-.16 8.761-.07 2.922.101 5.836.304 8.742.617 2.903.32 5.809.71 8.649 1.398Zm0 0"/><path fill="#6f88a4" d="M488.336 338.371c0 .14-.04.262-.117.363a.34.34 0 0 1-.278.149c-.105 0-.199-.051-.273-.149a.578.578 0 0 1-.117-.363c0-.144.039-.266.117-.363.074-.102.168-.153.273-.153.11 0 .204.051.278.153a.563.563 0 0 1 .117.363ZM490.176 341.414c0 .14-.035.262-.113.363a.334.334 0 0 1-.278.153c-.105 0-.2-.051-.277-.153a.6.6 0 0 1-.113-.363.6.6 0 0 1 .113-.363c.078-.098.172-.149.277-.149.11 0 .203.051.277.149a.576.576 0 0 1 .114.363ZM489.11 334.969c0 .14-.04.261-.118.363a.339.339 0 0 1-.273.148.34.34 0 0 1-.278-.148.578.578 0 0 1-.117-.363.57.57 0 0 1 .117-.364.334.334 0 0 1 .278-.152c.105 0 .199.05.273.152a.57.57 0 0 1 .117.364ZM491.36 337.457a.6.6 0 0 1-.114.363c-.078.098-.168.149-.277.149-.11 0-.2-.051-.278-.149a.6.6 0 0 1-.113-.363c0-.144.04-.266.113-.363.079-.102.168-.153.278-.153.11 0 .199.051.277.153a.584.584 0 0 1 .113.363ZM491.75 345.328a.56.56 0 0 1-.113.363c-.078.102-.168.153-.278.153-.105 0-.199-.051-.277-.153a.584.584 0 0 1-.113-.363.6.6 0 0 1 .113-.363c.078-.098.172-.149.277-.149.11 0 .2.051.278.149a.576.576 0 0 1 .113.363Zm0 0"/><path fill="#737d92" d="M482.125 346.555c-.469.168-.973.21-1.46.254a6.276 6.276 0 0 1-1.435-.122 11.458 11.458 0 0 1-2.218-.898 9.475 9.475 0 0 1-1.59-1.293c-.2-.203-.39-.41-.574-.629-.957-1.504-.809-3.21-.86-4.644v-2.653c0-.652-1.011-.652-1.011 0v2.157c-.122 1.53.183 3.46-.887 5.148-.18.219-.371.43-.574.629a8.985 8.985 0 0 1-1.59 1.297c-.61.328-1.34.633-2.219.894-.469.098-.945.14-1.434.121-.488-.043-.992-.086-1.46-.25-.477-.14-.95-.359-1.329-.714.598.886 1.696 1.324 2.739 1.48.363.05.738.05 1.113.023 2.363.211 3.86-.675 6.129-.78 2.27.105 3.773 1 6.129.78a5.3 5.3 0 0 0 1.113-.023c1.055-.156 2.148-.602 2.742-1.48-.375.347-.844.558-1.324.703Zm0 0"/><path fill="#404d5c" d="M467.195 332.758c1.446.738 3.22.523 4.547 3 1.332 2.48-.226-4.66-.226-4.66ZM479.742 332.758c-1.441.738-3.215.523-4.547 3-1.332 2.48.227-4.66.227-4.66Zm0 0"/><path fill="#f4aeac" d="M480.684 331.148c0 .907-.446 2.141-1.934 1.82-1.484-.323-2.676-.273-3.059 1.278-.382 1.547-.894 2.922-2.164 2.922h-.105c-1.277 0-1.781-1.363-2.164-2.922-.383-1.55-1.574-1.594-3.063-1.277-1.488.32-1.93-.914-1.93-1.82 0-2.247 5.278-2.47 7.208-2.47 1.93 0 7.21.223 7.21 2.47Zm0 0"/><path fill="#e79391" d="M473.422 331.836c.262.851.32 1.707.34 2.559-.012.851-.07 1.703-.34 2.558-.27-.855-.32-1.707-.34-2.558.02-.864.078-1.707.34-2.56Zm0 0"/><path fill="#fff" d="M467.516 330.59c.324-.434.82-.711 1.296-.922.489-.207 1-.336 1.524-.441a7.855 7.855 0 0 1 1.574-.122c.52.008 1.05.067 1.555.243-1.035.199-2.016.355-3.016.539-.496.078-.992.175-1.48.277-.477.106-.965.211-1.453.426Zm0 0"/><path fill="#c98959" d="M574.879 347c4.61-4.227 10.34-5.309 16.504-5.262 3.27 5.653-.817 16.582-5.016 20.532-4.949-9.422-11.488-15.27-11.488-15.27Zm0 0"/><path fill="#ffe2cc" d="M579.75 352.273c4.758-4.742 11.512-9.648 12.164-7.52.652 2.134-1.328 9.59-6.27 16.185-6.937-.278-5.894-8.665-5.894-8.665Zm0 0"/><path fill="#c98959" d="M548.543 347c-4.61-4.227-10.34-5.309-16.504-5.262-3.27 5.653.816 16.582 5.016 20.532 4.949-9.422 11.488-15.27 11.488-15.27Zm0 0"/><path fill="#ffe2cc" d="M543.68 352.273c-4.754-4.742-11.512-9.648-12.164-7.52-.653 2.134 1.332 9.59 6.27 16.185 6.937-.278 5.894-8.665 5.894-8.665Zm0 0"/><path fill="#c98959" d="M561.055 435.73c-33.418 0-40-31.726-36.965-47.144.844-4.281 1.965-7.387 3.226-9.996 2.184-4.508 4.79-7.535 7.157-12.563 3.73-7.933 5.902-23.03 26.574-23.03 8.703 0 19.738 1.401 24.242 15.253 4.363 13.414 9.313 14.121 12.305 26.04 0 .007.008.015.008.022.097.375.183.758.277 1.16 2.957 13.075 0 50.258-36.824 50.258Zm0 0"/><path fill="#ffe2cc" d="M561.055 435.73c-33.418 0-40-31.726-36.965-47.144.844-4.281 1.965-7.387 3.226-9.996 3.192-3.926 7.825-3.664 12.348-.32 5.363 3.957 10.957 3.39 12.809-2.04 1.441-4.242 3.511-6.53 8.609-6.53 5.094 0 7.156 2.288 8.606 6.53 1.855 5.43 7.445 5.989 12.808 2.04 6.113-4.508 12.418-3.403 15.106 6.02 0 .007.007.015.007.022.098.375.184.758.282 1.16 2.945 13.075-.012 50.258-36.836 50.258Zm0 0"/><path d="M552.508 368.055a7.438 7.438 0 0 1-.301 2.082 6.454 6.454 0 0 1-.367.941 5.107 5.107 0 0 1-1.094 1.504 3.78 3.78 0 0 1-.687.504 3.212 3.212 0 0 1-.743.309 2.885 2.885 0 0 1-1.547 0 3.24 3.24 0 0 1-.746-.31 3.755 3.755 0 0 1-.683-.503 4.556 4.556 0 0 1-.602-.676 6.04 6.04 0 0 1-.86-1.77 6.662 6.662 0 0 1-.226-1.019 7.434 7.434 0 0 1-.074-1.062c0-.36.024-.711.074-1.063.051-.351.125-.691.227-1.023.098-.328.223-.645.367-.942.145-.297.309-.57.492-.824.184-.254.383-.48.602-.676.215-.199.445-.367.683-.504.243-.136.489-.242.747-.312.253-.066.511-.102.773-.102.258 0 .516.036.773.102.254.07.504.176.743.312.242.137.468.305.687.504.215.196.414.422.598.676.187.254.351.527.496.824.144.297.265.614.367.942a7.396 7.396 0 0 1 .3 2.086Zm0 0"/><path fill="#fff" d="M547.89 366.652c0 .262-.05.512-.152.754a1.843 1.843 0 0 1-.426.637 1.9 1.9 0 0 1-.636.426 1.926 1.926 0 0 1-1.504 0 1.9 1.9 0 0 1-.637-.426 1.9 1.9 0 0 1-.426-.637 1.922 1.922 0 0 1-.148-.754 1.956 1.956 0 0 1 1.965-1.965 1.96 1.96 0 0 1 1.813 1.215c.1.239.152.489.152.75Zm0 0"/><path d="M577.863 368.055a7.438 7.438 0 0 1-.3 2.082 6.454 6.454 0 0 1-.368.941c-.144.3-.308.574-.492.828-.187.25-.387.477-.601.676a3.78 3.78 0 0 1-.688.504 3.211 3.211 0 0 1-.742.309 2.885 2.885 0 0 1-1.547 0 3.24 3.24 0 0 1-.746-.31 3.755 3.755 0 0 1-.684-.503 4.556 4.556 0 0 1-.601-.676 5.387 5.387 0 0 1-.492-.828 6.454 6.454 0 0 1-.368-.941 7.16 7.16 0 0 1-.3-2.082c0-.36.023-.711.074-1.063a6.632 6.632 0 0 1 .594-1.965c.144-.297.308-.57.492-.824.183-.254.383-.48.601-.676.215-.199.446-.367.684-.504.242-.136.488-.242.746-.312.254-.066.512-.102.773-.102.262 0 .52.036.774.102.254.07.504.176.742.312.242.137.469.305.688.504.214.196.418.422.601.676.184.254.348.527.492.824.145.297.266.614.367.942a7.396 7.396 0 0 1 .3 2.086Zm0 0"/><path fill="#fff" d="M578.48 366.652a1.96 1.96 0 0 1-1.215 1.816 1.926 1.926 0 0 1-1.504 0 1.96 1.96 0 0 1-1.063-2.566c.103-.242.243-.453.427-.64.184-.184.398-.325.637-.426a1.995 1.995 0 0 1 1.504 0c.242.101.453.242.64.426a1.96 1.96 0 0 1 .574 1.39Zm0 0"/><path fill="#d97f59" d="M561.402 381.773c.114.29.176.567.22.852.042.29.058.566.058.855 0 .286-.016.563-.059.852a3.796 3.796 0 0 1-.219.852 4.017 4.017 0 0 1-.218-.852 5.709 5.709 0 0 1-.059-.852c0-.289.016-.566.059-.855a3.9 3.9 0 0 1 .218-.852Zm0 0"/><path fill="#ef9c99" d="M557.012 376.3c1.277-1.87 7.617-1.948 8.781 0 1.164 1.95-2.016 5.368-4.39 5.368-2.364 0-5.4-3.895-4.391-5.367Zm0 0"/><path fill="#35281e" d="M569.688 386.688c-.372 1.777-1.06 3.613-2.157 5.101a7.917 7.917 0 0 1-.32.418c-1.32 1.598-3.184 2.695-5.688 2.695-2.675 0-5.05-.972-6.687-2.73-1.371-1.48-2.234-3.516-2.313-6.004 0-1.09 2.297.453 4.079.66h.02c1.44.156 3.972-.523 4.773-1.617l.007-.008c.008-.012.016-.02.016-.027.82 1.078 2.55 1.793 4.715 1.652h.043c1.672-.105 3.511-1.062 3.511-.14Zm0 0"/><path fill="#c98959" d="M555.68 343.633c2.199-2.957 5.68-3.723 5.68-3.723s-.973 1.582-.782 2.602c.18 1.027-7.453 4.55-4.898 1.12Zm0 0"/><path fill="#c98959" d="M557.969 344.207c2.676-3.723 6.433-3.723 6.433-3.723s-1.234 1.793-1.05 2.809c.199 1.027-7.88 4.387-5.383.914Zm0 0"/><path fill="#d06665" d="M567.543 391.79c-.106.144-.211.276-.324.417-1.32 1.598-3.18 2.695-5.688 2.695-2.676 0-5.05-.972-6.683-2.73 1.398-1.77 3.03-3.23 6.547-3.23 2.207 0 4.652 1.269 6.148 2.847Zm0 0"/><path fill="#fff" d="M566.14 386.836v.914c-.015 2.977-.156 4.5-1.285 4.5h-2.984c-.32 0-.441-1.594-.476-3.29v-.007c-.02-.637-.02-1.289-.008-1.883 0-.816.015-1.511.023-1.851l.008-.008c.012-.008.02-.02.02-.027.808 1.078 2.53 1.785 4.703 1.652Zm0 0"/><path fill="#fff" d="M561.41 387.07c0 .586-.008 1.239-.023 1.883v.008c-.055 1.695-.192 3.289-.508 3.289h-2.98c-1.157 0-1.278-1.61-1.29-4.75v-.664h.02c1.441.156 3.973-.52 4.773-1.617l.008-.008c0 .34.008 1.035 0 1.86Zm0 0"/><path fill="#f6e9e3" d="M566.14 386.836v.914c-1.285-.148-3.562-.633-4.722-.68H561.273c-1.011 0-3.226.438-4.664.43v-.664h.02c1.441.156 3.973-.52 4.773-1.617l.008-.008c.008-.008.02-.02.02-.027.816 1.078 2.539 1.785 4.71 1.652Zm0 0"/><path fill="#c98959" d="M588.559 366.332c.504.504 3.105 2.914 5.086 3.54-1.512.269-3.036.394-3.618 0 1.356.776 2.625 1.132 3.235 1.167-.746.746-2.418.582-2.418.582ZM534.027 367.148c-.597.551-3.66 3.149-5.93 3.77 1.708.383 3.419.582 4.098.172-1.574.816-3.027 1.148-3.722 1.168.808.887 2.715.773 2.715.773Zm0 0"/><path fill="#fff" d="M557.68 377.258c-.13-.172-.102-.442-.008-.653.098-.218.254-.382.418-.53.34-.286.746-.462 1.148-.583.817-.199 1.66-.199 2.45.07-.399.141-.782.227-1.165.313-.382.086-.746.176-1.113.27-.355.097-.703.21-1.023.367-.305.156-.645.328-.707.746Zm0 0"/><path fill="#b66f3e" d="M542.309 360.945c.101-.972.66-1.879 1.382-2.574a5.95 5.95 0 0 1 2.633-1.46 5.285 5.285 0 0 1 3.035.085c.973.32 1.825.973 2.297 1.828-.87-.437-1.695-.707-2.531-.8-.836-.098-1.66-.008-2.469.199a8.646 8.646 0 0 0-2.324.976 8.321 8.321 0 0 0-2.023 1.746ZM579.863 360.945a8.194 8.194 0 0 0-2.027-1.746 8.264 8.264 0 0 0-2.32-.976c-.809-.2-1.637-.286-2.47-.2-.835.094-1.671.364-2.53.801.468-.844 1.32-1.508 2.297-1.828.972-.332 2.05-.34 3.03-.086.993.25 1.907.766 2.637 1.461.723.695 1.278 1.602 1.383 2.574Zm0 0"/><path fill="#c98959" d="M570.926 403.508c0-2.883 3.078-5.961 8.3-5.961 5.227 0 7.786 3.402 7.786 5.437 0 2.036-3.133 2.246-7.785 2.246-4.653.008-8.301.532-8.301-1.722Zm0 0"/><path fill="#f3b578" d="M573.395 400.793c.312-.688 1.867-2.863 6.093-2.566 4.106.285 5.489 2.015 5.489 3.277 0 1.062-.211 1.637-1.567 1.848-1.355.207-.574-2.403-1.305-2.567-.73-.16-.632 3.461-3.128 3.254-2.497-.21-.149-3.473-1.88-3.57-1.32-.067-.886 2.297-2.609 2.297-1.347.011-1.496-1.106-1.093-1.973Zm0 0"/><path fill="#c98959" d="M541.43 403.508c0-2.883-3.078-5.961-8.305-5.961s-7.781 3.402-7.781 5.437c0 2.036 3.129 2.246 7.781 2.246 4.645.008 8.305.532 8.305-1.722Zm0 0"/><path fill="#f3b578" d="M538.96 400.793c-.315-.688-1.87-2.863-6.097-2.566-4.105.285-5.484 2.015-5.484 3.277 0 1.062.207 1.637 1.562 1.848 1.356.207.575-2.403 1.305-2.567.73-.16.637 3.461 3.129 3.254 2.496-.21.148-3.473 1.879-3.57 1.324-.067.887 2.297 2.61 2.297 1.347.011 1.495-1.106 1.097-1.973Zm0 0"/><g clip-path="url(#b)"><path fill="#e9b873" d="m660.766 491.297-34.86-86.809H263.79l45.836 82.93Zm0 0"/></g><g clip-path="url(#c)"><path fill="#f8ca7a" d="M624.012 622.484h-91.95c0-59.375 13.81-217.996 13.81-217.996h78.14c0 23.266 1.718 199.903 0 217.996Zm0 0"/></g><g clip-path="url(#d)"><path fill="#e9b873" d="M547.8 404.48s-6.51 159.508-8.023 218.004H195.738c-1.511-12.691-4.562-64.824-7.207-115.03-.289-5.27-.547-10.528-.816-15.712-2.211-42.976-3.965-81.187-3.965-87.262Zm0 0"/></g><path fill="#d09e68" d="m547.8 404.48-40.015 102.973H188.531c-.289-5.27-.547-10.527-.816-15.71l72.2-87.263Zm0 0"/><g clip-path="url(#e)"><path fill="#f8ca7a" d="m547.8 404.48-42.745 74.23-5.016 8.716-351.14 3.87 34.851-86.816Zm0 0"/></g><g clip-path="url(#f)"><path fill="#e9b873" fill-opacity=".169" d="m501.586 484.738-1.547 2.688-351.14 3.87 34.851-86.816h11.3c-1.44 31.93 5.481 54.29 34.524 65.485 19.79 7.629 160.457 10.875 272.012 14.773Zm0 0"/></g><path fill="#fff6e9" d="M261.61 559.89c0 .59-.532 1.192-1.255 1.32-.199.071-.992.2-2.113.403.531 3.758 1.051 7.653 1.051 13.727 0 2.836 0 6.863-3.492 6.863-.992 0-4.219-.398-5.34-1.512.39-2.968.86-5.671.86-8.648 0-3.168-.071-6.402-.262-9.57-3.684.46-7.84.863-11.27 1.254-.59 4.09-1.121 8.187-1.71 11.613-.724 4.289-2.376 8.187-6.263 8.187-2.504 0-4.015-.722-4.879-2.906.922-2.773 1.977-5.344 2.504-8.117.532-2.836.993-5.41 1.383-7.785l-1.781.129c-1.121 0-1.781-.86-1.781-2.114 0-.332.07-.66.129-.992l4.02-.793c1.12-6.926 2.241-12.605 5.796-20.46 2.906-6.403 5.41-7.919 8.836-7.919 4.879 0 8.434 4.29 11.668 25.414 1.516.07 2.766.328 3.496.993.332.25.402.582.402.914Zm-10.81-1.777c-.132-1.383-.26-2.773-.46-4.09-1.055-7.652-2.305-15.441-3.758-15.441-.86 0-2.176 1.453-3.227 5.02-1.05 3.566-1.972 9.5-2.902 15.773 3.426-.54 7.05-1 10.348-1.262Zm0 0"/><path fill="#fff6e9" d="M291.86 578.508c-.13 1.05-1.512 1.984-3.696 1.984-2.766 0-4.476-2.375-5.469-5.742-1.785 3.035-4.68 5.281-8.836 5.281-14.433 0-13.843-25.215-.07-25.215 2.637 0 5.211 1.055 7.313 3.106V556.8c0-12.606.992-20.395 6.394-20.395 1.45 0 2.633.793 4.156 2.309-2.304 6.46-3.035 14.058-3.035 20.793.016 8.566.078 14.902 3.242 19Zm-10.81-14.39c-1.12-2.044-2.573-3.7-4.948-3.7-2.442 0-4.414 2.777-4.414 7.328 0 5.02 1.972 6.926 3.886 6.926 2.18.008 4.817-3.3 5.477-10.555ZM318.355 564.379c0 7.656-4.48 16.164-13.183 16.305-8.172.129-11.867-6.735-11.867-12.477 0-4.75 2.3-9.039 6.52-9.039h.128c.531-4.82 4.02-7.195 8.508-7.195 6.73 0 9.894 5.941 9.894 12.406Zm-8.105 2.113c0-4.62-1.184-9.308-5.27-9.308-1.582 0-2.703 1.382-3.296 2.304 2.046.723 2.765 2.707 2.765 4.883 0 .922-.129 1.781-.328 2.633-1.715.664-2.574 2.836-2.574 5.023 0 2.575 1.71 5.149 3.957 5.149 3.426.008 4.746-6.324 4.746-10.684ZM347.031 561.543c0 7.984-5.668 13.457-13.582 15.05-.922.2-2.504-.07-3.957-.53a124.146 124.146 0 0 0-.129 5.21c0 6.133.66 12.477 1.254 16.696-1.785.398-3.226.59-4.418.59-4.289 0-5.601-2.774-5.14-11.875.46-8.516.859-18.149.859-22.766 0-4.82.133-7.395-1.25-12.406 1.644-1.453 3.297-2.246 4.68-2.246 2.109 0 3.625 1.785 3.625 5.543 0 1.914-.332 4.027-.532 4.55 2.434-2.777 7.184-6.734 11.399-6.734 2.375 0 4.156 1.32 5.27 2.637 1.261 1.46 1.921 4.437 1.921 6.281Zm-6.46.723c0-1.254-.528-3.961-2.044-3.961-2.765 0-7.12 2.574-8.632 13.86 1.183.46 2.703.66 4.347-.071 1.582-.653 6.328-5.14 6.328-9.828ZM369.57 549.988c0 1.383-.39 2.637-2.172 3.168-1.054.328-2.765.59-5.601.86-.39 4.422-.852 9.5-.852 14.12 0 6.466 2.434 8.45 5.602 9.7-.461 2.578-3.168 4.36-4.95 4.36-2.636 0-6.722-.993-8.503-6.665-.594-1.984-.992-4.36-.992-8.976 0-3.899.199-7.989.46-12.016-.859.07-1.843.07-2.902.07-1.785 0-2.969-1.125-2.969-2.968 0-.723.133-1.582.332-2.446 1.653.262 3.625.461 5.872.461.199-3.164.328-6.203.328-9.039 0-1.582-.07-2.703-.2-4.156.793-.07 1.782-.262 2.637-.262 4.945 0 6.79 3.63 6.79 8.707 0 1.192-.071 2.707-.262 4.492 2.375-.132 4.75-.332 7.183-.46.129.328.2.73.2 1.05ZM412.023 577.707c-.863.723-2.304.992-3.234.992-4.156 0-5.601-4.488-5.93-7.195-1.843 5.082-7.054 8.707-11.27 8.707-4.878 0-8.437-3.957-8.437-9.367 0-9.11 6.993-17.95 16.086-17.95 5.012 0 9.168 3.899 9.887 6.735-.527 2.375-.527 6.402-.527 8.246 0 2.906 1.773 8.117 3.425 9.832Zm-10.218-18.871c-.39-1.05-1.121-1.844-2.172-1.844-3.559 0-8.043 9.11-8.043 13.528 0 1.324.46 2.906 1.45 2.906 3.757-.008 8.034-10.371 8.765-14.59ZM468.578 550.781c0 5.34-4.617 16.633-21.687 16.633-1.051 0-2.043-.07-2.832-.129-.395 6.602-1.125 13.465-2.438 16.633 0 0-1.973.793-3.426.793-1.25 0-2.574-.594-2.703-2.836v-.531c0-2.707-.07-8.91-.07-17.028 0-6.601-.07-14.25-.79-22.046-2.112.793-3.89 1.714-4.948 2.578-1.051.859-1.512 1.32-2.176 1.984-1.512-.262-2.043-1.254-2.043-2.309 0-.722.66-1.843 1.652-2.703 1.914-1.914 4.29-3.43 6.852-4.62-.13-1.255-.39-2.446-.59-3.7 0 0 2.703-2.043 5.469-2.043.53 0 .992.07 1.511.262.922.398 1.653 1.511 2.176 3.168 1.32-.203 2.633-.262 3.957-.332 10.88-.008 22.086 5.011 22.086 16.226Zm-10.418.469c0-7.457-4.156-11.355-11.8-11.355-.923 0-1.782.07-2.762.132.789 5.672.789 12.668.789 16.172 0 1.844-.07 4.09-.13 6.535h1.052c7.714 0 12.851-3.77 12.851-11.484ZM490.125 575.07c0 3.567-4.547 6.004-8.766 6.004-5.539 0-13.12-4.16-13.12-14.058 0-7.528 4.546-14.782 11.87-14.782 4.809 0 8.305 2.774 8.305 7.786 0 6.332-5.871 10.23-10.289 12.476 1.121 2.043 2.637 2.836 4.219 2.836 2.965 0 5.008-2.445 6.199-3.566 1.453.597 1.582 2.183 1.582 3.304Zm-13.441-10.03c0 1.253.066 2.374.199 3.366 3.297-2.246 6.52-4.82 6.52-8.648 0-2.113-2.044-2.242-2.903-2.242-1.512 0-3.816 2.183-3.816 7.523ZM513.395 549.988c0 1.383-.391 2.637-2.172 3.168-1.055.328-2.766.59-5.602.86-.39 4.422-.86 9.5-.86 14.12 0 6.466 2.434 8.45 5.598 9.7-.46 2.578-3.164 4.36-4.945 4.36-2.637 0-6.723-.993-8.508-6.665-.59-1.984-.988-4.36-.988-8.976 0-3.899.2-7.989.46-12.016-.862.07-1.843.07-2.905.07-1.782 0-2.965-1.125-2.965-2.968 0-.723.129-1.582.332-2.446 1.652.262 3.625.461 5.867.461.2-3.164.332-6.203.332-9.039 0-1.582-.07-2.703-.2-4.156.79-.07 1.782-.262 2.634-.262 4.949 0 6.793 3.63 6.793 8.707 0 1.192-.07 2.707-.262 4.492 2.375-.132 4.746-.332 7.183-.46.137.328.208.73.208 1.05Zm0 0"/><path fill="#f44e14" d="M239.348 391.004s-4.29 3.523-8.07 4.805c-1.305 12.699-15.356 47.734-17.626 47.3-.922-.175.844-10.718 1.512-14.39 0 0-20.824 40.41-25.844 40.648-1.761.078 13.688-31.312 15.793-38.48-.347.425-11.547 14.465-13.59 14.066-.992-.191 9.598-22.09 16.704-36.816 3.113-6.465 5.554-11.555 6.058-12.817l21.453-8.101.028-.008.007.008 2.13 2.254Zm0 0"/><path fill="#cc3e17" fill-opacity=".498" d="M191.523 444.953c-.234-.043.192-1.32 1.051-3.437 3.446-2.262 18.063-26.29 18.488-26.055 1.145.61-4.933 12.98-5.949 15.406-3.445 4.168-12.086 14.383-13.59 14.086ZM215.156 428.727c-3.816 7.28-21.398 40.437-25.844 40.64-.355.016-.015-1.226.774-3.3 6.078-3.524 24.93-46.415 26.176-46.169 1.05.207-.828 7.028-1.106 8.829Zm0 0"/><path fill="#cc3e17" d="M239.348 391.004s-4.29 3.523-8.07 4.805c-1.305 12.699-15.356 47.734-17.626 47.3-.312-.062-.312-1.367-.148-3.203.035.106.086.168.148.176 2.27.426 11.418-28.883 12.723-41.586 2.313-.785 9.719-8.117 11.313-9.258Zm0 0"/><path fill="#cc3e17" d="M239.191 388.11c-.05.058-.105.109-.156.163-.289.297-.66.704-1.14 1.2a77.318 77.318 0 0 1-2.13 2.175c-.488.47-1.007.973-1.581 1.504-5.106 4.715-13.758 11.336-25.957 14.985 3.113-6.465 5.554-11.555 6.058-12.817l21.453-8.101h.035c2.61-.024 4.079.219 3.418.89Zm0 0"/><path fill="#40505a" d="m237.07 397.895-.41 2.777c-.07.46-.129.902-.172 1.355l-.062.672-.008.145a.44.44 0 0 0-.133-.285c-.144-.141-.164-.079-.101-.07.257.077.773.07 1.214.062.461-.012.942-.02 1.426-.012.488.02.977.047 1.473.149.492.105 1.016.289 1.433.671l-.433.512c-.629-.418-1.567-.39-2.445-.305-.442.043-.895.114-1.364.184-.48.05-.906.164-1.566.105-.164-.035-.41-.043-.723-.347a.94.94 0 0 1-.25-.602l-.012-.207-.035-.722c-.015-.48-.015-.957-.007-1.438l.027-2.793Zm0 0"/><path fill="#40505a" d="M246.93 405.488c-.895-.285-1.774-.582-2.668-.789-.887-.21-1.785-.375-2.653-.41-.87-.027-1.722.086-2.382.445-.68.34-1.106.86-1.637 1.633l-.66-.137c-.14-1.062.547-2.304 1.61-2.793 1.026-.523 2.14-.617 3.148-.523 1.015.086 1.98.36 2.902.695l.687.27.66.316c.446.2.864.45 1.282.688Zm0 0"/><path fill="#f97d16" d="M247.738 380.355c-2.078 6.332-8.496 17.489-11.71 18.063-3.212.566-4.255-1.227-3.212-15.41 1.043-14.18 14.922-2.653 14.922-2.653Zm0 0"/><path fill="#fcc008" d="M244.758 381.668c-.055.062-.106.113-.16.168-.633.66-1.72 1.86-3.27 3.383-.484.469-1.008.976-1.582 1.504-6.562 6.066-19 15.277-37.293 17.27 1.059-2.235 3-6.204 4.887-10.048 2.582-5.246 5.058-10.257 5.058-10.257s35.141-4.856 32.36-2.02Zm0 0"/><path fill="#ecaa06" d="M244.758 381.668c-.055.062-.106.113-.16.168-.633.66-1.72 1.86-3.27 3.383-8.363 4.691-25.64 8.719-33.988 8.726 2.582-5.246 5.058-10.257 5.058-10.257s35.141-4.856 32.36-2.02Zm0 0"/><path fill="#cc3e17" d="M259.121 333.078c3.54-.71 6.844-1.086 9.582-5.531 2.738-4.445-9.07-5.48-11.808-4.211-2.73 1.277 2.226 9.742 2.226 9.742Zm0 0"/><path fill="#f44e14" d="M269.46 333.078c3.4-2.312 3.47-11.055-4.026-14.562-7.497-3.496-8.54 3.968-5.47 5.109 3.071 1.137 9.548 2.406 9.497 9.453Zm0 0"/><path fill="#fff" d="M265.215 318.941c1.375.489 2.687 1.262 3.707 2.375.504.559.93 1.184 1.226 1.872.305.687.485 1.41.528 2.148-.313-.668-.625-1.305-1-1.902a10.947 10.947 0 0 0-1.258-1.672 15.423 15.423 0 0 0-1.531-1.453c-.54-.446-1.114-.88-1.672-1.368Zm0 0"/><path fill="#aeb125" d="M251.703 312.852c-.027.132.078.304.277.515 1.063-.664 2.149-1.305 3.325-1.707-2.785-1.14-5.313-1.723-5.313-1.723s1.98 1.567 1.711 2.915Zm0 0"/><path fill="#aeb125" d="M245.95 316.352c-.177.25.718-.176 1.773.191 1.18-1.106 2.504-2.082 3.78-2.883.704-.441 1.419-.887 2.157-1.277-3.851-1.801-8.496-1.582-8.496-1.582s2.906 2.488.785 5.55Zm0 0"/><path fill="#aeb125" d="M265.277 318.012c1.512-2.594-7.93-10.082-16.363-4.16-8.437 5.925-9.95 15.636-11.586 22.437-1.633 6.805-12.336 20.805-16.996 26.98-4.664 6.176-16.871 23.829-17.879 26.594 5.418 1.262 29.34 2.524 47.852-9.96 18.511-12.485 10.824-35.93 10.199-40.97-.625-5.042-1.32-14.796.52-17.773 1.828-2.973 3.28-1.476 4.253-3.148Zm0 0"/><path fill="#9a9a1f" d="M250.297 379.91c-18.098 12.207-41.39 11.27-47.469 10.05 11.606-.07 29.344-2.417 43.703-12.1 12.64-8.528 14.625-25.188 14.067-38.22 1.105 6.22 7.453 28.301-10.301 40.27Zm0 0"/><path fill="#9a9a1f" d="M247.305 368.402c-2.375 3.809-6.567 6.614-11.114 8.649.645-5.02.739-6.91.192-5.395-.781 2.176-2.653 5.106-4.176 6.969a61.018 61.018 0 0 1-5.98 1.73l.964-3.382-3.816 3.992c-3.176.617-5.66.86-6.66.86-3.403 0 23.066-36.305 28.816-35.74 6.668.661 8.383 11.728 1.774 22.317Zm0 0"/><path fill="#fcc008" d="M247.297 367.36c-2.375 3.808-6.567 6.609-11.113 8.644.64-5.02.738-6.906.191-5.39-.785 2.171-2.652 5.105-4.176 6.968a61.018 61.018 0 0 1-5.98 1.73l.965-3.386-3.82 3.996c-3.173.617-5.66.86-6.66.86-3.4 0 23.07-36.305 28.816-35.739 6.671.66 8.394 11.727 1.777 22.316Zm0 0"/><path fill="#fff" d="M258.059 319.23c0 .34-.063.668-.196.985a2.513 2.513 0 0 1-.558.836 2.558 2.558 0 0 1-1.82.754 2.557 2.557 0 0 1-1.816-.754 2.513 2.513 0 0 1-.56-.836 2.515 2.515 0 0 1-.195-.985c0-.343.063-.671.195-.988.13-.312.317-.594.559-.832.238-.242.52-.43.832-.558.316-.133.645-.196.984-.196.344 0 .672.063.989.196.312.128.593.316.832.558.242.238.43.52.558.832.133.317.196.645.196.988Zm0 0"/><path fill="#1e2315" d="M257.809 319.656c0 .254-.051.5-.149.735a1.879 1.879 0 0 1-.414.625c-.18.18-.39.32-.625.418-.234.097-.48.144-.734.144s-.5-.047-.735-.144a1.89 1.89 0 0 1-.625-.418c-.18-.18-.32-.387-.418-.625a1.894 1.894 0 0 1-.144-.735c0-.254.047-.5.144-.734.098-.238.239-.445.418-.625.18-.18.387-.32.625-.418.235-.098.48-.145.735-.145a1.93 1.93 0 0 1 1.36.563c.179.18.316.387.413.625.098.234.149.48.149.734Zm0 0"/><path fill="#fff" d="M255.73 318.941c0 .243-.085.45-.257.622a.847.847 0 0 1-.621.257.847.847 0 0 1-.622-.257.847.847 0 0 1-.257-.622c0-.242.086-.449.257-.62a.847.847 0 0 1 .622-.259c.242 0 .449.086.62.258a.847.847 0 0 1 .258.621Zm0 0"/></svg>