<svg xmlns="http://www.w3.org/2000/svg" id="dog" width="1080" height="1080" version="1.0" viewBox="0 0 810 810"><defs><clipPath id="a"><path d="M183.793 188.734h442.43v432.743h-442.43Zm0 0"/></clipPath></defs><path fill="#fff" d="M296.016 197.234a60.18 60.18 0 0 1 22.464.762c9.204 2.066 17.5 6.496 24.391 12.55v58.227c0 12.922-10.508 23.438-23.426 23.438-12.922 0-23.43-10.516-23.43-23.438v-71.539"/><path fill="#fff" d="M292.367 404.867v24.215c-.18-.187-.336-.394-.52-.582-19.28-19.648-29.902-45.633-29.902-73.176v-54.91c0-7.867-6.394-14.27-14.257-14.27h-6.278c-27.48 0-49.84-22.367-49.84-49.863 0-.12.094-.215.239-.219l49.449-1.542c5.27-.125 10.16-3.145 12.762-7.88 7.574-13.777 19.94-23.39 34.218-27.652v69.79c0 17.21 14 31.214 31.207 31.214s31.207-14.004 31.207-31.215v-49.945c7.684 9.977 12.301 22.496 12.43 35.816.219 22.723 9.809 42.93 26.2 58.094l-28.141 6.387c-8.739 1.984-14.84 9.633-14.829 18.719 0 23.308-16.484 43.879-39.195 48.898-8.683 1.922-14.75 9.375-14.75 18.121M318.25 587.395c-3.188 11.328-9.918 24.746-23.938 24.746H275.7c-5.535 0-10.039-4.508-10.039-10.043 0-8.66 7.04-15.707 15.692-15.707 5.566 0 10.113-4.446 10.273-9.977l10.527-74.473a160.816 160.816 0 0 0 24.196 43.528l-8.098 41.926M362.113 613.695c-4.285 0-7.77-3.488-7.77-7.777 0-7.988 5.91-14.488 13.173-14.488h16.074c.86.41 1.715.836 2.586 1.23l46.328 21.035h-70.39M582.273 568.3c0 25.032-20.355 45.395-45.375 45.395h-50.812l46.332-21.035c19.098-8.668 35.914-20.867 49.855-35.597V568.3"/><path fill="#fff" d="M618.445 447.016c0 59.558-35.03 113.945-89.242 138.558l-54.695 24.828a36.778 36.778 0 0 1-30.422 0l-54.695-24.828c-54.215-24.613-89.246-79-89.246-138.558v-42.149c0-5.066 3.558-9.394 8.652-10.52 26.246-5.804 45.293-29.566 45.293-56.624-.004-5.305 3.601-9.832 8.773-11.004l50.895-11.551c14.894-3.383 30.215-5.07 45.535-5.07 15.32 0 30.644 1.687 45.539 5.07l50.898 11.55c5.168 1.173 8.774 5.7 8.766 11.13 0 26.933 19.055 50.695 45.3 56.5 5.095 1.125 8.65 5.453 8.65 10.52v42.148"/><path fill="#fff" d="M411.297 391.695c2.129-4.902 5.531-8.07 9.578-8.922a10.702 10.702 0 0 1 2.172-.222c8.098 0 16.473 9.062 19.004 21.144 2.758 13.168-2.281 25.836-11.004 27.664-4.047.852-8.426-.687-12.344-4.324-4.285-3.976-7.422-9.87-8.832-16.594-1.406-6.722-.898-13.382 1.426-18.746M387.258 462.059c-3.082 2.753-7.66 3.605-12.863 2.406-5.692-1.317-11.344-4.863-15.91-9.996-8.95-10.043-10.887-23.54-4.239-29.469 2.211-1.969 5.133-2.902 8.387-2.902 6.547 0 14.414 3.78 20.394 10.492 8.946 10.043 10.883 23.543 4.23 29.469M470.742 406.422c1.336-6.375 4.305-11.953 8.36-15.723 3.027-2.812 6.351-4.293 9.539-4.293.699 0 1.386.074 2.07.215 8.215 1.727 12.953 13.7 10.348 26.156-1.34 6.375-4.309 11.957-8.364 15.723-3.687 3.426-7.808 4.871-11.61 4.078-3.796-.797-6.987-3.777-8.995-8.398-2.203-5.078-2.684-11.383-1.348-17.758M544.863 454.469c-4.57 5.133-10.222 8.68-15.918 9.996-5.203 1.195-9.773.344-12.86-2.406-6.651-5.926-4.714-19.426 4.231-29.47 5.977-6.71 13.844-10.491 20.395-10.491 3.25 0 6.176.933 8.383 2.902 6.652 5.93 4.715 19.426-4.23 29.469M497.04 535.363c-3.474 2.719-10.93.899-19.571-1.215-7.746-1.89-16.531-4.035-26.102-4.035-9.574 0-18.355 2.145-26.105 4.035-8.64 2.118-16.102 3.934-19.57 1.215-2.622-2.062-3.95-7.351-3.95-15.726 0-34.239 22.262-62.094 49.625-62.094 27.36 0 49.625 27.855 49.625 62.094 0 8.375-1.332 13.664-3.953 15.726"/><path fill="#ffc233" d="m365.117 321.07 28.14-6.39c-9.445-8.739-17.722-28.606-22.32-36.68v8.852c0 .23-.03.453-.035.683l-13.129-66.066c-6.89-6.055-9.898-2.946-19.003-5.395-9.145-2.457-21.524-1.539-30.247 1.121v-.125c-14.273 4.262-26.644 13.875-34.214 27.649-2.606 4.734-7.493 7.75-12.766 7.883l-49.45 1.539c-.144.007-.238.097-.238.218 0 27.496 17.883 36.684 59.188 36.426 0 0 11.039 1.04 11.187 12.094v54.914c0 27.539 7.157 45.996 13.594 57.031.133.227.047 25.145.227 25.336l.293-33.355c0-8.746 6.066-16.2 14.75-18.118 22.71-5.023 39.195-25.593 39.195-48.898-.008-9.086 6.09-16.738 14.828-18.719M290.945 574.55c-.175 5.958-5.07 10.743-11.062 10.743-9.32 0-16.899 7.59-16.899 16.91 0 5.965 4.852 10.817 10.809 10.817h20.043c15.098 0 22.344-14.45 25.777-26.645l8.719-45.145a173.336 173.336 0 0 1-26.055-46.87l-11.332 80.19"/><path fill="#f0a700" d="M385.203 590.707c-.957-.453-1.89-.941-2.84-1.41h-17.64c-7.973 0-14.461 7.457-14.461 16.613 0 4.922 3.824 8.918 8.531 8.918h77.27l-50.86-24.121M583.86 565.742c0 27.067-21.137 49.09-47.122 49.09H483.98l48.11-22.746c19.832-9.375 37.293-22.566 51.77-38.492v12.148"/><path fill="#ff7a7a" d="M620.031 451.36c0 59.558-35.031 113.949-89.246 138.558l-54.691 24.832a36.817 36.817 0 0 1-30.426 0L411.91 601.2c-61.285-25.97-91.476-76.548-91.476-136.106v-42.149c0-5.066 3.554-9.39 8.648-10.515 26.246-5.809 45.293-29.57 45.293-56.63-.004-5.304 3.602-9.827 8.773-11.003l50.899-11.55c14.89-3.384 30.215-5.071 45.531-5.071 15.32 0 30.645 1.687 45.535 5.07l43.012 9.723c5.172 1.172 3.965 16.312 6.086 21.308 2.441 5.754 12.434 22.153 38.68 27.961 5.09 1.125 8.644 5.453 8.644 10.52l-1.504 48.601"/><path fill="#85f5ff" d="M620.031 451.36c0 59.558-35.031 113.949-89.246 138.558l-54.691 24.832a36.817 36.817 0 0 1-30.426 0L411.91 601.2c-61.285-25.97-91.476-76.548-91.476-136.106v-42.149c0-5.066 3.554-9.39 8.648-10.515 26.246-5.809 45.293-29.57 45.293-56.63-.004-5.304 3.602-9.827 8.773-11.003l50.899-11.55c14.89-3.384 30.215-5.071 45.531-5.071 15.32 0 30.645 1.687 45.535 5.07l43.012 9.723c5.172 1.172 3.965 16.312 6.086 21.308 2.441 5.754 12.434 22.153 38.68 27.961 5.09 1.125 8.644 5.453 8.644 10.52l-1.504 48.601"/><path fill="#00d7eb" d="m621.543 402.754-1.5 48.613c0 59.563-35.031 113.934-89.25 138.551l-54.711 24.828a36.82 36.82 0 0 1-30.414 0l-33.762-13.543c-14.05-5.965-26.472-13.203-37.258-21.61a164.666 164.666 0 0 0 9.645 4.466l33.758 13.539c9.672 4.382 79.785-30.743 79.785-30.743 54.219-24.617 89.223-78.988 89.223-138.55l.992-48.528c0-.207 17.21 10.786 24.836 12.47 5.105 1.116 8.656 5.448 8.656 10.507"/><path fill="#ffc233" d="M411.297 391.695c2.129-4.902 5.531-8.07 9.578-8.922a10.702 10.702 0 0 1 2.172-.222c8.098 0 16.473 9.062 19.004 21.144 2.758 13.168-2.281 25.836-11.004 27.664-4.047.852-8.426-.687-12.344-4.324-4.285-3.976-7.422-9.87-8.832-16.594-1.406-6.722-.898-13.382 1.426-18.746M387.258 462.059c-3.082 2.753-7.66 3.605-12.863 2.406-5.692-1.317-11.344-4.863-15.91-9.996-8.95-10.043-10.887-23.54-4.239-29.469 2.211-1.969 5.133-2.902 8.387-2.902 6.547 0 14.414 3.78 20.394 10.492 8.946 10.043 10.883 23.543 4.23 29.469M470.742 406.422c1.336-6.375 4.305-11.953 8.36-15.723 3.027-2.812 6.351-4.293 9.539-4.293.699 0 1.386.074 2.07.215 8.215 1.727 12.953 13.7 10.348 26.156-1.34 6.375-4.309 11.957-8.364 15.723-3.687 3.426-7.808 4.871-11.61 4.078-3.796-.797-6.987-3.777-8.995-8.398-2.203-5.078-2.684-11.383-1.348-17.758M544.863 454.469c-4.57 5.133-10.222 8.68-15.918 9.996-5.203 1.195-9.773.344-12.86-2.406-6.651-5.926-4.714-19.426 4.231-29.47 5.977-6.71 13.844-10.491 20.395-10.491 3.25 0 6.176.933 8.383 2.902 6.652 5.93 4.715 19.426-4.23 29.469M497.04 535.363c-3.474 2.719-10.93.899-19.571-1.215-7.746-1.89-16.531-4.035-26.102-4.035-9.574 0-18.355 2.145-26.105 4.035-8.64 2.118-16.102 3.934-19.57 1.215-2.622-2.062-3.95-7.351-3.95-15.726 0-34.239 22.262-62.094 49.625-62.094 27.36 0 49.625 27.855 49.625 62.094 0 8.375-1.332 13.664-3.953 15.726"/><g clip-path="url(#a)"><path fill="#261b00" d="M618.445 447.012c0 59.562-35.027 113.949-89.242 138.562l-54.695 24.828a36.778 36.778 0 0 1-30.422 0l-54.695-24.828c-54.215-24.613-89.246-79-89.246-138.562v-42.145c0-5.066 3.558-9.394 8.652-10.52 26.246-5.808 45.297-29.566 45.297-56.628a11.204 11.204 0 0 1 8.77-11l50.894-11.551c14.894-3.383 30.219-5.074 45.539-5.074 15.316 0 30.64 1.691 45.531 5.074l50.902 11.55c5.168 1.177 8.778 5.7 8.77 11.13 0 26.933 19.05 50.691 45.3 56.5 5.09 1.125 8.645 5.453 8.645 10.52ZM582.273 568.3c0 25.031-20.355 45.394-45.375 45.394H486.09l46.328-21.035c19.094-8.668 35.914-20.867 49.855-35.597Zm-220.156 45.394c-4.289 0-7.773-3.488-7.773-7.777 0-7.988 5.906-14.488 13.172-14.488h16.074c.86.41 1.715.836 2.586 1.23l46.328 21.035Zm-43.867-26.3c-3.188 11.328-9.918 24.746-23.938 24.746H275.7c-5.535 0-10.039-4.508-10.039-10.043 0-8.66 7.04-15.707 15.692-15.707 5.566 0 10.113-4.446 10.273-9.977l10.527-74.473a160.816 160.816 0 0 0 24.196 43.528Zm-25.883-182.528v24.215c-.18-.187-.336-.394-.52-.582-19.28-19.648-29.902-45.633-29.902-73.172v-54.914c0-7.867-6.394-14.266-14.261-14.266h-6.274c-27.48 0-49.84-22.37-49.84-49.87 0-.118.094-.212.239-.215l49.449-1.54c5.27-.132 10.16-3.152 12.762-7.882 7.574-13.774 19.94-23.387 34.218-27.649v69.785c0 17.211 14 31.215 31.207 31.215 17.203 0 31.203-14.004 31.203-31.215v-49.945c7.688 9.98 12.305 22.496 12.434 35.816.219 22.723 9.809 42.93 26.2 58.094l-28.141 6.387c-8.743 1.984-14.84 9.637-14.829 18.719 0 23.308-16.484 43.879-39.195 48.898-8.683 1.922-14.75 9.375-14.75 18.121Zm3.649-207.637a60.182 60.182 0 0 1 22.464.766c9.204 2.066 17.5 6.496 24.391 12.55v58.231c0 12.918-10.508 23.434-23.426 23.434-12.922 0-23.43-10.516-23.43-23.434Zm315.46 189.516c-22.71-5.023-39.199-25.59-39.199-49.016.012-8.964-6.086-16.617-14.828-18.601l-50.898-11.55c-30.914-7.017-63.594-7.017-94.516 0l-13.215 2.995c-16.402-13.094-27.726-31.82-27.957-56-.183-18.77-8.265-36.14-21.16-48.3-.156-.149-.297-.305-.453-.454-8.082-7.48-18.008-12.937-29.066-15.418-9.602-2.152-19.192-2.168-28.27-.351-.441.09-.875.195-1.316.293-18.102 4.015-33.996 15.457-43.395 32.547-1.289 2.347-3.586 3.789-6.164 3.851l-49.45 1.54a7.953 7.953 0 0 0-7.796 7.995c0 31.79 25.848 57.649 57.617 57.649h6.274a6.492 6.492 0 0 1 6.484 6.488v54.914c0 29.59 11.41 57.512 32.129 78.625 2.328 2.371 4.336 4.969 6.07 7.719v5.34a159.11 159.11 0 0 0 4.434 37.215l-12.91 91.34c-.028.18-.04.363-.04.546a2.501 2.501 0 0 1-2.5 2.496c-12.94 0-23.472 10.536-23.472 23.489 0 9.828 7.996 17.824 17.82 17.824h18.613c14.793 0 25.97-10.863 31.47-30.586.03-.102.054-.203.073-.305l6.922-35.836a159.596 159.596 0 0 0 36.407 30.453h-1.668c-11.555 0-20.954 9.993-20.954 22.27 0 8.582 6.977 15.559 15.555 15.559h93.969c.32 0 .621-.047.918-.122.766.04 1.527.122 2.293.122h77.601c29.309 0 53.157-23.856 53.157-53.176v-20.074c22.906-28.063 36.168-63.657 36.168-101.215v-42.145c0-8.746-6.063-16.199-14.746-18.12"/></g><path fill="#261b00" d="M411.297 391.7c2.129-4.907 5.531-8.075 9.578-8.927a10.702 10.702 0 0 1 2.172-.222c8.098 0 16.473 9.062 19.004 21.144 2.754 13.168-2.281 25.836-11.004 27.668-4.047.848-8.426-.687-12.344-4.328-4.285-3.976-7.422-9.87-8.832-16.594-1.41-6.722-.902-13.382 1.426-18.742Zm2.113 41.038c4.688 4.356 10.035 6.64 15.38 6.64 1.288 0 2.573-.132 3.855-.401 13.066-2.739 20.703-19.282 17.015-36.88-3.683-17.593-17.308-29.675-30.383-26.937-6.582 1.38-11.949 6.152-15.113 13.438-2.965 6.828-3.64 15.152-1.902 23.441 1.734 8.29 5.691 15.64 11.148 20.7M387.258 462.059c-3.082 2.753-7.66 3.605-12.863 2.406-5.692-1.317-11.344-4.863-15.91-9.996-8.95-10.043-10.887-23.54-4.239-29.469 2.211-1.969 5.133-2.902 8.387-2.902 6.547 0 14.414 3.78 20.394 10.492 8.946 10.043 10.883 23.543 4.23 29.469Zm1.578-34.649c-11.957-13.418-29.797-17.11-39.762-8.223-9.969 8.891-8.355 27.04 3.598 40.461 5.633 6.325 12.726 10.723 19.976 12.399 2.141.492 4.22.734 6.223.734 5.242 0 9.93-1.672 13.563-4.91 9.968-8.887 8.351-27.035-3.598-40.46M470.742 406.422c1.332-6.375 4.305-11.957 8.36-15.723 3.027-2.812 6.351-4.293 9.539-4.293.699 0 1.39.07 2.07.215 8.215 1.727 12.953 13.703 10.348 26.156-1.34 6.375-4.309 11.957-8.364 15.723-3.691 3.426-7.808 4.871-11.61 4.078-3.796-.797-6.991-3.777-8.995-8.398-2.203-5.078-2.684-11.383-1.348-17.758Zm8.75 33.77c1.23.261 2.469.386 3.711.386 5.137 0 10.277-2.191 14.781-6.375 5.227-4.851 9.024-11.894 10.684-19.832 3.535-16.867-3.805-32.734-16.363-35.367-6.336-1.332-12.907.8-18.493 5.992-5.226 4.852-9.023 11.89-10.683 19.828-1.664 7.938-1.016 15.914 1.828 22.457 3.04 7 8.2 11.586 14.535 12.91M544.86 454.469c-4.567 5.133-10.22 8.68-15.915 9.996-5.203 1.195-9.773.344-12.86-2.406-6.651-5.926-4.714-19.426 4.235-29.47 5.977-6.71 13.84-10.491 20.39-10.491 3.25 0 6.177.933 8.384 2.902 6.652 5.93 4.715 19.426-4.235 29.469Zm-30.352-27.059c-11.953 13.426-13.567 31.574-3.598 40.461 3.633 3.238 8.317 4.91 13.563 4.91 2.004 0 4.086-.242 6.222-.734 7.25-1.676 14.344-6.074 19.977-12.399 11.953-13.421 13.57-31.57 3.598-40.46-9.97-8.883-27.805-5.2-39.762 8.222M497.035 535.363c-3.469 2.719-10.926.899-19.562-1.215-7.75-1.89-16.536-4.035-26.106-4.035-9.574 0-18.355 2.145-26.105 4.035-8.64 2.118-16.106 3.934-19.57 1.215-2.622-2.062-3.95-7.351-3.95-15.726 0-34.239 22.262-62.094 49.625-62.094s49.625 27.855 49.625 62.094c0 8.375-1.332 13.664-3.957 15.726Zm-45.668-85.605c-31.652 0-57.402 31.351-57.402 69.879 0 11.191 2.195 18.133 6.926 21.847 6.441 5.059 15.605 2.82 26.218.227 7.32-1.79 15.621-3.816 24.258-3.816 8.633 0 16.934 2.027 24.258 3.816 5.965 1.457 11.477 2.805 16.297 2.805 3.758 0 7.098-.817 9.922-3.032 4.726-3.714 6.926-10.656 6.926-21.847 0-38.528-25.754-69.88-57.403-69.88"/></svg>