<svg xmlns="http://www.w3.org/2000/svg" id="food" width="1080" height="1080" version="1.0" viewBox="0 0 810 810"><defs><clipPath id="a"><path d="M194.91 412h372v59h-372Zm0 0"/></clipPath><clipPath id="b"><path d="M218 470h326v82.508H218Zm0 0"/></clipPath><clipPath id="c"><path d="M301 251.758h160V295H301Zm0 0"/></clipPath><clipPath id="d"><path d="M426 490h205v80.133H426Zm0 0"/></clipPath></defs><g clip-path="url(#a)"><path fill="#756156" fill-rule="evenodd" d="M224.043 412.395h313.734c16.04 0 29.133 13.09 29.133 29.125 0 16.03-13.094 29.125-29.133 29.125H224.043c-16.04 0-29.133-13.094-29.133-29.125 0-15.957 13.094-29.125 29.133-29.125Zm0 0"/></g><g clip-path="url(#b)"><path fill="#db6f17" fill-rule="evenodd" d="m543.586 470.023-4.106 44.075c-1.937 20.988-20.765 38.183-41.765 38.183H264.023c-20.996 0-39.746-17.195-41.761-38.183l-4.106-44.075c1.86.387 3.871.622 5.887.622h313.734c1.934 0 3.95-.235 5.809-.622Zm0 0"/></g><path fill="#f6f0d8" fill-rule="evenodd" d="m547.074 414.023-7.594-81.253c-1.937-21.07-20.765-38.188-41.765-38.188H264.023c-20.996 0-39.746 17.195-41.761 38.188l-7.594 81.253a29.004 29.004 0 0 1 9.375-1.55h313.734c3.254-.078 6.352.543 9.297 1.55ZM334.227 444.54h93.367c2.48 0 4.57 2.015 4.57 4.57v44.538c0 2.477-2.012 4.57-4.57 4.57h-93.367c-2.48 0-4.575-2.015-4.575-4.57v-44.617c0-2.476 2.016-4.492 4.575-4.492Zm0 0"/><path fill="#756156" fill-rule="evenodd" d="M380.563 316.969h.617c1.86 0 3.332 1.547 3.332 3.328v67.93c0 1.859-1.551 3.332-3.332 3.332h-.618c-1.859 0-3.332-1.547-3.332-3.332v-67.93c-.078-1.86 1.473-3.328 3.332-3.328ZM329.809 316.969h.62c1.86.078 3.255 1.703 3.098 3.484l-4.492 67.852c-.156 1.86-1.707 3.254-3.566 3.175h-.617c-1.86-.078-3.258-1.703-3.102-3.484l4.496-67.851c.074-1.86 1.703-3.254 3.563-3.176ZM431.934 316.969h-.622c-1.859.078-3.253 1.703-3.097 3.484l4.492 67.852c.156 1.86 1.707 3.254 3.566 3.175h.618c1.859-.078 3.254-1.703 3.101-3.484l-4.496-67.851c-.078-1.86-1.703-3.254-3.562-3.176Zm0 0"/><g clip-path="url(#c)"><path fill="#756156" d="M324.773 251.98h112.274a23.722 23.722 0 0 1 16.812 6.973c4.34 4.336 6.977 10.223 6.977 16.809v18.82h-14.258v-18.82c0-2.637-1.086-4.957-2.789-6.664-1.707-1.703-4.11-2.79-6.664-2.79H324.773c-2.636 0-4.96 1.087-6.664 2.79-1.707 1.707-2.789 4.105-2.789 6.664v18.82h-14.257v-18.82a23.706 23.706 0 0 1 6.972-16.809c4.184-4.34 10.152-6.973 16.738-6.973Zm0 0"/></g><g clip-path="url(#d)"><path fill="#60cbef" fill-rule="evenodd" d="M627.633 542.375 609.44 493.16c-23.175 7.024-49.757 10.985-77.96 10.985-31.06 0-60.114-4.813-84.868-13.2l-16.273 44.11c-5.367 14.515-7.965 12.558 6.562 18.304 26.754 10.559 59.387 16.774 94.621 16.774 34.508 0 66.543-5.957 92.957-16.133 8.606-3.32 6.563-2.43 3.153-11.625Zm0 0"/></g><path fill="#f0872b" fill-rule="evenodd" d="M467.574 478.004c-18.23-.852-17.336 7.066-20.96 12.941 24.753 8.387 53.808 13.2 84.866 13.2 28.204 0 54.786-4.004 77.961-10.985-1.02-9.41-1.277-19.2-17.804-20.988-3.196-11.879-28.461-21.29-36.215-1.363-10.863-5.579-19.043-7.75-31.184 1.363-3.922-7.152-12.695-10.09-19.343-6.172-16.528-6.602-31.524-2.047-37.32 12.004Zm0 0"/><path fill="#f6f0d8" fill-rule="evenodd" d="M471.879 488.648c2.43 0 4.387 1.02 4.387 2.254 0 1.235-1.957 2.258-4.387 2.258-2.43 0-4.387-1.023-4.387-2.258-.043-1.234 1.957-2.254 4.387-2.254Zm121.46-4.515c2.427 0 4.388 1.023 4.388 2.258 0 1.234-1.961 2.257-4.387 2.257-2.43 0-4.39-1.023-4.39-2.257 0-1.235 1.96-2.258 4.39-2.258Zm-10.777-7.235c2.426 0 4.387 1.02 4.387 2.254 0 1.235-1.96 2.258-4.386 2.258-2.43 0-4.391-1.023-4.391-2.258-.043-1.234 1.96-2.254 4.39-2.254Zm-12.015-11.964c2.43 0 4.387 1.023 4.387 2.257 0 1.235-1.957 2.254-4.387 2.254-2.43 0-4.387-1.02-4.387-2.254s1.957-2.257 4.387-2.257Zm1.148 23.414c2.43 0 4.39 1.023 4.39 2.257 0 1.235-1.96 2.258-4.39 2.258-2.425 0-4.386-1.023-4.386-2.258 0-1.234 1.96-2.257 4.386-2.257Zm-13.164-9.703c2.43 0 4.39 1.02 4.39 2.253 0 1.235-1.96 2.258-4.39 2.258-2.426 0-4.386-1.023-4.386-2.258 0-1.234 1.96-2.253 4.386-2.253Zm-12.14 11.195c2.43 0 4.386 1.023 4.386 2.258 0 1.234-1.957 2.254-4.386 2.254-2.43 0-4.387-1.02-4.387-2.254 0-1.235 1.957-2.258 4.387-2.258ZM540 472.426c2.43 0 4.387 1.023 4.387 2.258 0 1.234-1.957 2.257-4.387 2.257-2.43 0-4.387-1.023-4.387-2.257 0-1.235 1.957-2.258 4.387-2.258Zm-15.633 12.433c2.426 0 4.387 1.02 4.387 2.254 0 1.235-1.961 2.258-4.387 2.258-2.43 0-4.39-1.023-4.39-2.258-.043-1.277 1.96-2.254 4.39-2.254ZM511.5 474.004c2.426 0 4.387 1.02 4.387 2.254s-1.961 2.258-4.387 2.258c-2.43 0-4.39-1.024-4.39-2.258 0-1.278 1.96-2.254 4.39-2.254Zm-11.8 10.812c2.425 0 4.386 1.02 4.386 2.258 0 1.235-1.961 2.254-4.387 2.254-2.43 0-4.39-1.02-4.39-2.254-.043-1.238 1.96-2.258 4.39-2.258Zm-15.595-7.96c2.43 0 4.387 1.019 4.387 2.253 0 1.235-1.957 2.258-4.387 2.258-2.43 0-4.386-1.023-4.386-2.258 0-1.234 1.957-2.254 4.386-2.254ZM509.668 536.586c-7.117 6.726 8.008 12.473 10.223 3.406h16.617c2.215 9.067 17.34 3.278 10.222-3.406-2-1.914-2-.723 0-2.598 7.118-6.726-8.007-12.472-10.222-3.406h-16.574c-2.215-9.066-17.34-3.32-10.223 3.406 1.957 1.875 1.957.684-.043 2.598Zm0 0"/></svg>