<svg xmlns="http://www.w3.org/2000/svg" xmlns:xlink="http://www.w3.org/1999/xlink" width="1080" zoomAndPan="magnify" viewBox="0 0 810 809.999993" height="1080" preserveAspectRatio="xMidYMid meet" version="1.0"><defs><clipPath id="7154a00a21"><path d="M 334 218.917969 L 590.917969 218.917969 L 590.917969 476 L 334 476 Z M 334 218.917969 " clip-rule="nonzero"/></clipPath><clipPath id="f221fc6ad2"><path d="M 218.917969 305 L 496 305 L 496 590.917969 L 218.917969 590.917969 Z M 218.917969 305 " clip-rule="nonzero"/></clipPath><clipPath id="44fa5137ff"><path d="M 230 369 L 496 369 L 496 590.917969 L 230 590.917969 Z M 230 369 " clip-rule="nonzero"/></clipPath></defs><rect x="-81" width="972" fill="#ffffff" y="-80.999999" height="971.999992" fill-opacity="1"/><rect x="-81" width="972" fill="#ffffff" y="-80.999999" height="971.999992" fill-opacity="1"/><rect x="-81" width="972" fill="#cba34d" y="-80.999999" height="971.999992" fill-opacity="1"/><g clip-path="url(#7154a00a21)"><path fill="#4895aa" d="M 590.835938 362.8125 L 560.070312 374.75 C 556.464844 383.484375 554.460938 388.210938 550.855469 396.945312 L 564.15625 427.148438 C 553.417969 437.886719 552.9375 438.367188 542.28125 449.023438 L 512.078125 435.722656 C 503.34375 439.328125 498.617188 441.332031 489.882812 444.9375 L 477.945312 475.703125 C 462.804688 475.703125 462.164062 475.703125 446.9375 475.703125 L 435 444.9375 C 426.269531 441.332031 421.542969 439.328125 412.808594 435.722656 L 382.601562 449.101562 C 371.867188 438.367188 371.386719 437.886719 360.730469 427.230469 L 374.03125 397.023438 C 370.425781 388.292969 368.421875 383.5625 364.816406 374.832031 L 334.050781 362.894531 C 334.050781 347.75 334.050781 347.109375 334.050781 331.886719 L 364.816406 319.949219 C 368.421875 311.214844 370.425781 306.488281 374.03125 297.753906 L 360.730469 267.46875 C 371.464844 256.734375 371.945312 256.253906 382.601562 245.597656 L 412.808594 258.894531 C 421.542969 255.289062 426.269531 253.289062 435 249.683594 L 446.9375 218.917969 C 462.082031 218.917969 462.722656 218.917969 477.945312 218.917969 L 489.882812 249.683594 C 498.617188 253.289062 503.34375 255.289062 512.078125 258.894531 L 542.363281 245.597656 C 553.097656 256.332031 553.578125 256.8125 564.234375 267.46875 L 550.9375 297.675781 C 554.542969 306.40625 556.542969 311.136719 560.148438 319.867188 L 590.917969 331.804688 C 590.835938 347.027344 590.835938 347.667969 590.835938 362.8125 Z M 590.835938 362.8125 " fill-opacity="1" fill-rule="nonzero"/></g><path fill="#2a6377" d="M 539.398438 347.347656 C 539.398438 348.609375 539.367188 349.867188 539.304688 351.125 C 539.242188 352.378906 539.152344 353.636719 539.027344 354.886719 C 538.90625 356.140625 538.75 357.390625 538.566406 358.636719 C 538.382812 359.878906 538.167969 361.121094 537.921875 362.355469 C 537.675781 363.589844 537.398438 364.816406 537.09375 366.039062 C 536.789062 367.257812 536.453125 368.472656 536.085938 369.675781 C 535.722656 370.882812 535.328125 372.078125 534.902344 373.261719 C 534.476562 374.445312 534.023438 375.621094 533.542969 376.785156 C 533.0625 377.945312 532.550781 379.097656 532.015625 380.234375 C 531.476562 381.371094 530.910156 382.496094 530.316406 383.605469 C 529.722656 384.71875 529.101562 385.8125 528.457031 386.890625 C 527.808594 387.972656 527.136719 389.035156 526.4375 390.082031 C 525.738281 391.128906 525.011719 392.15625 524.261719 393.167969 C 523.511719 394.179688 522.738281 395.171875 521.9375 396.144531 C 521.140625 397.117188 520.320312 398.070312 519.472656 399.003906 C 518.628906 399.9375 517.761719 400.847656 516.871094 401.738281 C 515.980469 402.628906 515.070312 403.496094 514.136719 404.339844 C 513.203125 405.1875 512.25 406.007812 511.277344 406.804688 C 510.304688 407.605469 509.3125 408.378906 508.300781 409.128906 C 507.289062 409.878906 506.261719 410.601562 505.214844 411.300781 C 504.167969 412 503.105469 412.675781 502.023438 413.320312 C 500.945312 413.96875 499.851562 414.589844 498.742188 415.183594 C 497.628906 415.777344 496.507812 416.34375 495.367188 416.878906 C 494.230469 417.417969 493.078125 417.929688 491.917969 418.410156 C 490.753906 418.890625 489.578125 419.34375 488.394531 419.769531 C 487.210938 420.191406 486.015625 420.585938 484.808594 420.953125 C 483.605469 421.320312 482.394531 421.652344 481.171875 421.960938 C 479.949219 422.265625 478.722656 422.542969 477.488281 422.789062 C 476.253906 423.03125 475.015625 423.246094 473.769531 423.433594 C 472.523438 423.617188 471.273438 423.769531 470.023438 423.894531 C 468.769531 424.019531 467.515625 424.109375 466.257812 424.171875 C 465 424.234375 463.742188 424.265625 462.484375 424.265625 C 461.222656 424.265625 459.964844 424.234375 458.707031 424.171875 C 457.453125 424.109375 456.195312 424.019531 454.945312 423.894531 C 453.691406 423.769531 452.441406 423.617188 451.195312 423.433594 C 449.953125 423.246094 448.710938 423.03125 447.476562 422.789062 C 446.242188 422.542969 445.015625 422.265625 443.792969 421.960938 C 442.574219 421.652344 441.359375 421.320312 440.15625 420.953125 C 438.949219 420.585938 437.753906 420.191406 436.570312 419.769531 C 435.386719 419.34375 434.210938 418.890625 433.046875 418.410156 C 431.886719 417.929688 430.734375 417.417969 429.597656 416.878906 C 428.460938 416.34375 427.335938 415.777344 426.226562 415.183594 C 425.113281 414.589844 424.019531 413.96875 422.941406 413.320312 C 421.859375 412.675781 420.796875 412 419.75 411.300781 C 418.703125 410.601562 417.675781 409.878906 416.664062 409.128906 C 415.652344 408.378906 414.660156 407.605469 413.6875 406.804688 C 412.714844 406.007812 411.761719 405.1875 410.828125 404.339844 C 409.898438 403.496094 408.984375 402.628906 408.09375 401.738281 C 407.203125 400.847656 406.335938 399.9375 405.492188 399.003906 C 404.648438 398.070312 403.824219 397.117188 403.027344 396.144531 C 402.226562 395.171875 401.453125 394.179688 400.703125 393.167969 C 399.953125 392.15625 399.230469 391.128906 398.53125 390.082031 C 397.832031 389.035156 397.15625 387.972656 396.511719 386.890625 C 395.863281 385.8125 395.242188 384.71875 394.648438 383.605469 C 394.054688 382.496094 393.488281 381.371094 392.953125 380.234375 C 392.414062 379.097656 391.902344 377.945312 391.421875 376.785156 C 390.941406 375.621094 390.488281 374.445312 390.0625 373.261719 C 389.640625 372.078125 389.246094 370.882812 388.878906 369.675781 C 388.511719 368.472656 388.179688 367.257812 387.871094 366.039062 C 387.566406 364.816406 387.289062 363.589844 387.042969 362.355469 C 386.800781 361.121094 386.585938 359.878906 386.398438 358.636719 C 386.214844 357.390625 386.0625 356.140625 385.9375 354.886719 C 385.8125 353.636719 385.722656 352.378906 385.660156 351.125 C 385.597656 349.867188 385.566406 348.609375 385.566406 347.347656 C 385.566406 346.089844 385.597656 344.832031 385.660156 343.574219 C 385.722656 342.316406 385.8125 341.0625 385.9375 339.808594 C 386.0625 338.558594 386.214844 337.308594 386.398438 336.0625 C 386.585938 334.816406 386.800781 333.578125 387.042969 332.34375 C 387.289062 331.109375 387.566406 329.882812 387.871094 328.660156 C 388.179688 327.4375 388.511719 326.226562 388.878906 325.023438 C 389.246094 323.816406 389.640625 322.621094 390.0625 321.4375 C 390.488281 320.253906 390.941406 319.078125 391.421875 317.914062 C 391.902344 316.753906 392.414062 315.601562 392.953125 314.464844 C 393.488281 313.324219 394.054688 312.203125 394.648438 311.089844 C 395.242188 309.980469 395.863281 308.886719 396.511719 307.808594 C 397.15625 306.726562 397.832031 305.664062 398.53125 304.617188 C 399.230469 303.570312 399.953125 302.542969 400.703125 301.53125 C 401.453125 300.519531 402.226562 299.527344 403.027344 298.554688 C 403.824219 297.582031 404.648438 296.628906 405.492188 295.695312 C 406.335938 294.761719 407.203125 293.851562 408.09375 292.960938 C 408.984375 292.070312 409.898438 291.203125 410.828125 290.359375 C 411.761719 289.511719 412.714844 288.691406 413.6875 287.894531 C 414.660156 287.09375 415.652344 286.320312 416.664062 285.570312 C 417.675781 284.820312 418.703125 284.09375 419.75 283.394531 C 420.796875 282.695312 421.859375 282.023438 422.941406 281.375 C 424.019531 280.730469 425.113281 280.109375 426.226562 279.515625 C 427.335938 278.921875 428.460938 278.355469 429.597656 277.816406 C 430.734375 277.28125 431.886719 276.769531 433.046875 276.289062 C 434.210938 275.808594 435.386719 275.355469 436.570312 274.929688 C 437.753906 274.503906 438.949219 274.109375 440.15625 273.746094 C 441.359375 273.378906 442.574219 273.042969 443.792969 272.738281 C 445.015625 272.433594 446.242188 272.15625 447.476562 271.910156 C 448.710938 271.664062 449.953125 271.449219 451.195312 271.265625 C 452.441406 271.082031 453.691406 270.925781 454.945312 270.804688 C 456.195312 270.679688 457.453125 270.589844 458.707031 270.527344 C 459.964844 270.464844 461.222656 270.433594 462.484375 270.433594 C 463.742188 270.433594 465 270.464844 466.257812 270.527344 C 467.515625 270.589844 468.769531 270.679688 470.023438 270.804688 C 471.273438 270.925781 472.523438 271.082031 473.769531 271.265625 C 475.015625 271.449219 476.253906 271.664062 477.488281 271.910156 C 478.722656 272.15625 479.949219 272.433594 481.171875 272.738281 C 482.394531 273.042969 483.605469 273.378906 484.808594 273.746094 C 486.015625 274.109375 487.210938 274.503906 488.394531 274.929688 C 489.578125 275.355469 490.753906 275.808594 491.917969 276.289062 C 493.078125 276.769531 494.230469 277.28125 495.367188 277.816406 C 496.507812 278.355469 497.628906 278.921875 498.742188 279.515625 C 499.851562 280.109375 500.945312 280.730469 502.023438 281.375 C 503.105469 282.023438 504.167969 282.695312 505.214844 283.394531 C 506.261719 284.09375 507.289062 284.820312 508.300781 285.570312 C 509.3125 286.320312 510.304688 287.09375 511.277344 287.894531 C 512.25 288.691406 513.203125 289.511719 514.136719 290.359375 C 515.070312 291.203125 515.980469 292.070312 516.871094 292.960938 C 517.761719 293.851562 518.628906 294.761719 519.472656 295.695312 C 520.320312 296.628906 521.140625 297.582031 521.9375 298.554688 C 522.738281 299.527344 523.511719 300.519531 524.261719 301.53125 C 525.011719 302.542969 525.738281 303.570312 526.4375 304.617188 C 527.136719 305.664062 527.808594 306.726562 528.457031 307.808594 C 529.101562 308.886719 529.722656 309.980469 530.316406 311.089844 C 530.910156 312.203125 531.476562 313.324219 532.015625 314.464844 C 532.550781 315.601562 533.0625 316.753906 533.542969 317.914062 C 534.023438 319.078125 534.476562 320.253906 534.902344 321.4375 C 535.328125 322.621094 535.722656 323.816406 536.085938 325.023438 C 536.453125 326.226562 536.789062 327.4375 537.09375 328.660156 C 537.398438 329.882812 537.675781 331.109375 537.921875 332.34375 C 538.167969 333.578125 538.382812 334.816406 538.566406 336.0625 C 538.75 337.308594 538.90625 338.558594 539.027344 339.808594 C 539.152344 341.0625 539.242188 342.316406 539.304688 343.574219 C 539.367188 344.832031 539.398438 346.089844 539.398438 347.347656 Z M 539.398438 347.347656 " fill-opacity="1" fill-rule="nonzero"/><g clip-path="url(#f221fc6ad2)"><path fill="#d1e3ee" d="M 409.683594 400.148438 L 396.0625 359.367188 L 445.496094 309.933594 C 418.65625 300.078125 387.25 305.605469 365.457031 326.519531 C 339.097656 351.835938 334.769531 391.175781 352.476562 421.058594 L 225.726562 539.238281 C 221.398438 543.246094 218.917969 548.933594 218.917969 554.863281 C 218.917969 560.550781 221.160156 565.917969 225.164062 569.925781 L 239.746094 584.585938 C 243.753906 588.59375 249.203125 590.917969 254.96875 590.917969 C 260.898438 590.917969 266.507812 588.433594 270.59375 584.105469 L 391.976562 454.070312 C 419.296875 464.164062 451.1875 458.316406 473.140625 436.363281 C 491.324219 418.175781 498.535156 393.097656 494.691406 369.542969 L 450.542969 413.6875 Z M 409.683594 400.148438 " fill-opacity="1" fill-rule="nonzero"/></g><g clip-path="url(#44fa5137ff)"><path fill="#8cb9dd" d="M 494.691406 369.542969 L 480.269531 383.964844 C 477.464844 398.464844 470.414062 412.328125 459.199219 423.542969 C 437.246094 445.496094 405.355469 451.425781 378.035156 441.25 L 256.574219 571.285156 C 252.566406 575.613281 246.878906 578.097656 240.949219 578.097656 C 237.265625 578.097656 233.660156 577.136719 230.535156 575.371094 L 239.746094 584.585938 C 243.753906 588.59375 249.203125 590.917969 254.96875 590.917969 C 260.898438 590.917969 266.507812 588.433594 270.59375 584.105469 L 391.976562 454.070312 C 419.296875 464.164062 451.1875 458.316406 473.140625 436.363281 C 491.324219 418.175781 498.535156 393.097656 494.691406 369.542969 Z M 494.691406 369.542969 " fill-opacity="1" fill-rule="nonzero"/></g><path fill="#8cb9dd" d="M 382.121094 346.46875 L 398.785156 396.464844 L 409.683594 400.070312 L 396.0625 359.289062 L 445.496094 309.851562 C 438.367188 307.207031 430.835938 305.6875 423.304688 305.285156 Z M 382.121094 346.46875 " fill-opacity="1" fill-rule="nonzero"/><path fill="#ecb347" d="M 507.351562 355.921875 L 471.054688 392.21875 L 430.273438 378.597656 L 416.734375 337.816406 L 452.949219 301.601562 L 493.730469 315.140625 Z M 507.351562 355.921875 " fill-opacity="1" fill-rule="nonzero"/><path fill="#eb9840" d="M 475.300781 347.347656 C 475.300781 348.191406 475.21875 349.023438 475.054688 349.851562 C 474.890625 350.675781 474.648438 351.476562 474.324219 352.253906 C 474.003906 353.03125 473.609375 353.773438 473.140625 354.472656 C 472.675781 355.171875 472.140625 355.820312 471.546875 356.414062 C 470.953125 357.007812 470.304688 357.539062 469.605469 358.007812 C 468.90625 358.476562 468.167969 358.871094 467.386719 359.191406 C 466.609375 359.515625 465.808594 359.757812 464.984375 359.921875 C 464.15625 360.085938 463.324219 360.167969 462.484375 360.167969 C 461.640625 360.167969 460.808594 360.085938 459.980469 359.921875 C 459.15625 359.757812 458.355469 359.515625 457.578125 359.191406 C 456.800781 358.871094 456.058594 358.476562 455.359375 358.007812 C 454.660156 357.539062 454.011719 357.007812 453.417969 356.414062 C 452.824219 355.820312 452.292969 355.171875 451.824219 354.472656 C 451.355469 353.773438 450.960938 353.03125 450.640625 352.253906 C 450.316406 351.476562 450.074219 350.675781 449.910156 349.851562 C 449.746094 349.023438 449.664062 348.191406 449.664062 347.347656 C 449.664062 346.507812 449.746094 345.675781 449.910156 344.847656 C 450.074219 344.023438 450.316406 343.222656 450.640625 342.445312 C 450.960938 341.664062 451.355469 340.925781 451.824219 340.226562 C 452.292969 339.527344 452.824219 338.878906 453.417969 338.285156 C 454.011719 337.691406 454.660156 337.15625 455.359375 336.691406 C 456.058594 336.222656 456.800781 335.828125 457.578125 335.507812 C 458.355469 335.183594 459.15625 334.941406 459.980469 334.777344 C 460.808594 334.613281 461.640625 334.53125 462.484375 334.53125 C 463.324219 334.53125 464.15625 334.613281 464.984375 334.777344 C 465.808594 334.941406 466.609375 335.183594 467.386719 335.507812 C 468.167969 335.828125 468.90625 336.222656 469.605469 336.691406 C 470.304688 337.15625 470.953125 337.691406 471.546875 338.285156 C 472.140625 338.878906 472.675781 339.527344 473.140625 340.226562 C 473.609375 340.925781 474.003906 341.664062 474.324219 342.445312 C 474.648438 343.222656 474.890625 344.023438 475.054688 344.847656 C 475.21875 345.675781 475.300781 346.507812 475.300781 347.347656 Z M 475.300781 347.347656 " fill-opacity="1" fill-rule="nonzero"/><path fill="#2a6377" d="M 250.648438 550.125 L 259.714844 541.058594 L 268.777344 550.125 L 259.714844 559.1875 Z M 250.648438 550.125 " fill-opacity="1" fill-rule="nonzero"/><path fill="#2a6377" d="M 273.308594 527.492188 L 368.484375 432.3125 L 377.546875 441.375 L 282.371094 536.554688 Z M 273.308594 527.492188 " fill-opacity="1" fill-rule="nonzero"/></svg>