<svg xmlns="http://www.w3.org/2000/svg" id="maintenance" width="1080" height="1080" version="1.0" viewBox="0 0 810 810"><defs><clipPath id="a"><path d="M334 218.918h256.918V476H334Zm0 0"/></clipPath><clipPath id="b"><path d="M218.918 305H496v285.918H218.918Zm0 0"/></clipPath><clipPath id="c"><path d="M230 369h266v221.918H230Zm0 0"/></clipPath></defs><g clip-path="url(#a)"><path fill="#4895aa" d="M590.836 362.813 560.07 374.75c-3.605 8.734-5.61 13.46-9.215 22.195l13.301 30.203c-10.738 10.739-11.218 11.22-21.875 21.875l-30.203-13.3c-8.734 3.605-13.46 5.609-22.195 9.214l-11.938 30.766h-31.007L435 444.938c-8.73-3.606-13.457-5.61-22.191-9.215l-30.207 13.379-21.872-21.872 13.301-30.207c-3.605-8.73-5.61-13.46-9.215-22.191l-30.765-11.937v-31.008l30.765-11.938c3.606-8.734 5.61-13.46 9.215-22.195l-13.3-30.285 21.87-21.871 30.208 13.297c8.734-3.606 13.46-5.606 22.191-9.211l11.938-30.766h31.007l11.938 30.766c8.734 3.605 13.46 5.605 22.195 9.21l30.285-13.296 21.871 21.87-13.297 30.208c3.606 8.73 5.606 13.46 9.211 22.191l30.77 11.938c-.082 15.222-.082 15.867-.082 31.007Zm0 0"/></g><path fill="#2a6377" d="M539.398 347.348c0 1.261-.03 2.52-.093 3.777a75.748 75.748 0 0 1-.278 3.762 75.557 75.557 0 0 1-.46 3.75 75.48 75.48 0 0 1-1.473 7.402 73.723 73.723 0 0 1-1.008 3.637 71.28 71.28 0 0 1-1.184 3.586 81.906 81.906 0 0 1-1.359 3.523 75.537 75.537 0 0 1-3.227 6.82 77.232 77.232 0 0 1-3.878 6.477 76.96 76.96 0 0 1-4.5 6.063 74.276 74.276 0 0 1-2.465 2.859 74.696 74.696 0 0 1-2.602 2.734c-.89.89-1.8 1.758-2.734 2.602a74.277 74.277 0 0 1-2.86 2.465 76.867 76.867 0 0 1-6.063 4.496 77.14 77.14 0 0 1-6.472 3.883 73.58 73.58 0 0 1-3.375 1.695 75.288 75.288 0 0 1-6.972 2.89 80.197 80.197 0 0 1-3.586 1.184 72.549 72.549 0 0 1-3.637 1.008c-1.223.305-2.45.582-3.684.828a75.976 75.976 0 0 1-7.465 1.105 75.905 75.905 0 0 1-3.765.278 76.022 76.022 0 0 1-7.551 0 75.748 75.748 0 0 1-3.762-.277 75.556 75.556 0 0 1-3.75-.461 80.397 80.397 0 0 1-3.718-.645 79.552 79.552 0 0 1-3.684-.828 73.723 73.723 0 0 1-3.637-1.008 80.197 80.197 0 0 1-3.586-1.183 75.288 75.288 0 0 1-6.973-2.89 77.232 77.232 0 0 1-6.656-3.555 77.14 77.14 0 0 1-3.191-2.024 76.867 76.867 0 0 1-11.656-9.563c-.89-.89-1.758-1.8-2.602-2.734a77.876 77.876 0 0 1-4.789-5.836 76.867 76.867 0 0 1-4.191-6.277 73.259 73.259 0 0 1-1.864-3.286 71.504 71.504 0 0 1-1.695-3.37 75.29 75.29 0 0 1-2.89-6.973 78.298 78.298 0 0 1-2.191-7.223 79.55 79.55 0 0 1-.829-3.684 85.999 85.999 0 0 1-.645-3.718 80.511 80.511 0 0 1-.46-3.75 75.748 75.748 0 0 1-.278-3.762 76.062 76.062 0 0 1 0-7.55c.063-1.259.152-2.512.277-3.766a81 81 0 0 1 .461-3.747c.188-1.242.403-2.484.645-3.718a76.974 76.974 0 0 1 3.02-10.906 75.289 75.289 0 0 1 2.89-6.973 73.58 73.58 0 0 1 3.559-6.656 76.867 76.867 0 0 1 11.582-14.848c.89-.89 1.804-1.758 2.734-2.602a74.276 74.276 0 0 1 2.86-2.464 76.96 76.96 0 0 1 6.063-4.5 77.058 77.058 0 0 1 27.726-11.485 80.398 80.398 0 0 1 3.718-.644 75.556 75.556 0 0 1 3.75-.461 75.748 75.748 0 0 1 3.762-.278 76.062 76.062 0 0 1 7.55 0c1.259.063 2.513.153 3.766.278a75.976 75.976 0 0 1 7.465 1.105c1.235.246 2.461.524 3.684.828 1.223.305 2.433.64 3.637 1.008 1.207.363 2.402.758 3.586 1.184 1.183.425 2.359.879 3.523 1.36 1.16.48 2.312.991 3.45 1.53a73.582 73.582 0 0 1 3.374 1.696 77.058 77.058 0 0 1 6.473 3.879 76.96 76.96 0 0 1 6.062 4.5 74.276 74.276 0 0 1 2.86 2.464c.933.844 1.843 1.711 2.734 2.602.89.89 1.758 1.8 2.602 2.734a74.276 74.276 0 0 1 2.465 2.86 76.959 76.959 0 0 1 4.5 6.063 77.055 77.055 0 0 1 11.484 27.726 75.977 75.977 0 0 1 1.105 7.465c.125 1.254.215 2.507.278 3.765.062 1.258.093 2.516.093 3.774Zm0 0"/><g clip-path="url(#b)"><path fill="#d1e3ee" d="m409.684 400.148-13.622-40.78 49.434-49.434c-26.84-9.856-58.246-4.329-80.039 16.586-26.36 25.316-30.687 64.656-12.98 94.539l-126.75 118.18c-4.329 4.007-6.809 9.695-6.809 15.624a21.227 21.227 0 0 0 6.246 15.063l14.582 14.66c4.008 4.008 9.457 6.332 15.223 6.332 5.93 0 11.539-2.484 15.625-6.813L391.977 454.07c27.32 10.094 59.21 4.246 81.164-17.707 18.183-18.187 25.394-43.265 21.55-66.82l-44.148 44.144Zm0 0"/></g><g clip-path="url(#c)"><path fill="#8cb9dd" d="m494.691 369.543-14.421 14.422c-2.805 14.5-9.856 28.363-21.07 39.578-21.954 21.953-53.845 27.883-81.165 17.707l-121.46 130.035a21.34 21.34 0 0 1-15.626 6.813c-3.683 0-7.289-.961-10.414-2.727l9.211 9.215c4.008 4.008 9.457 6.332 15.223 6.332 5.93 0 11.539-2.484 15.625-6.813L391.977 454.07c27.32 10.094 59.21 4.246 81.164-17.707 18.183-18.187 25.394-43.265 21.55-66.82Zm0 0"/></g><path fill="#8cb9dd" d="m382.121 346.469 16.664 49.996 10.899 3.605-13.622-40.78 49.434-49.438c-7.129-2.641-14.66-4.164-22.191-4.567Zm0 0"/><path fill="#ecb347" d="m507.352 355.922-36.297 36.297-40.782-13.621-13.539-40.782 36.215-36.214 40.781 13.539Zm0 0"/><path fill="#eb9840" d="M475.3 347.348c0 .843-.081 1.675-.245 2.504a12.626 12.626 0 0 1-.73 2.402c-.321.777-.716 1.52-1.184 2.219a12.89 12.89 0 0 1-3.535 3.535c-.7.469-1.438.863-2.22 1.183a12.824 12.824 0 0 1-15.563-4.719c-.468-.699-.862-1.44-1.182-2.218a12.626 12.626 0 0 1-.73-2.402 12.834 12.834 0 0 1 1.913-9.625 12.89 12.89 0 0 1 3.535-3.536c.7-.468 1.442-.863 2.22-1.183a12.626 12.626 0 0 1 2.401-.73 12.834 12.834 0 0 1 9.625 1.913 12.89 12.89 0 0 1 3.536 3.536c.468.699.863 1.441 1.183 2.218a12.824 12.824 0 0 1 .977 4.902Zm0 0"/><path fill="#2a6377" d="m250.648 550.125 9.067-9.066 9.062 9.066-9.062 9.063ZM273.309 527.492l95.175-95.18 9.063 9.063-95.176 95.18Zm0 0"/></svg>