<svg xmlns="http://www.w3.org/2000/svg" xmlns:xlink="http://www.w3.org/1999/xlink" width="1080" zoomAndPan="magnify" viewBox="0 0 810 809.999993" height="1080" preserveAspectRatio="xMidYMid meet" version="1.0"><defs><clipPath id="8b22a5e5cb"><path d="M 335 581 L 475 581 L 475 612.332031 L 335 612.332031 Z M 335 581 " clip-rule="nonzero"/></clipPath><clipPath id="d26268c924"><path d="M 182 550 L 336 550 L 336 612.332031 L 182 612.332031 Z M 182 550 " clip-rule="nonzero"/></clipPath><clipPath id="12989df0ad"><path d="M 474 550 L 628 550 L 628 612.332031 L 474 612.332031 Z M 474 550 " clip-rule="nonzero"/></clipPath><clipPath id="26154deafe"><path d="M 182 197.582031 L 336 197.582031 L 336 313 L 182 313 Z M 182 197.582031 " clip-rule="nonzero"/></clipPath></defs><rect x="-81" width="972" fill="#ffffff" y="-80.999999" height="971.999992" fill-opacity="1"/><rect x="-81" width="972" fill="#a6a6a6" y="-80.999999" height="971.999992" fill-opacity="1"/><path fill="#512623" d="M 474.265625 581.609375 L 335.925781 581.609375 L 335.925781 550.886719 L 474.265625 550.886719 L 474.265625 581.609375 " fill-opacity="1" fill-rule="nonzero"/><g clip-path="url(#8b22a5e5cb)"><path fill="#66342e" d="M 474.265625 612.332031 L 335.925781 612.332031 L 335.925781 581.609375 L 474.265625 581.609375 L 474.265625 612.332031 " fill-opacity="1" fill-rule="nonzero"/></g><g clip-path="url(#d26268c924)"><path fill="#d3843d" d="M 335.925781 612.332031 L 182.214844 612.332031 L 182.214844 550.886719 L 335.925781 550.886719 L 335.925781 612.332031 " fill-opacity="1" fill-rule="nonzero"/></g><path fill="#f9bb4b" d="M 220.644531 589.292969 L 205.273438 589.292969 L 205.273438 573.929688 L 220.644531 573.929688 L 220.644531 589.292969 " fill-opacity="1" fill-rule="nonzero"/><path fill="#f9bb4b" d="M 251.386719 589.292969 L 236.015625 589.292969 L 236.015625 573.929688 L 251.386719 573.929688 L 251.386719 589.292969 " fill-opacity="1" fill-rule="nonzero"/><path fill="#f9bb4b" d="M 282.128906 589.292969 L 266.757812 589.292969 L 266.757812 573.929688 L 282.128906 573.929688 L 282.128906 589.292969 " fill-opacity="1" fill-rule="nonzero"/><path fill="#f9bb4b" d="M 312.871094 589.292969 L 297.5 589.292969 L 297.5 573.929688 L 312.871094 573.929688 L 312.871094 589.292969 " fill-opacity="1" fill-rule="nonzero"/><g clip-path="url(#12989df0ad)"><path fill="#d3843d" d="M 627.976562 612.332031 L 474.265625 612.332031 L 474.265625 550.886719 L 627.976562 550.886719 L 627.976562 612.332031 " fill-opacity="1" fill-rule="nonzero"/></g><path fill="#f9bb4b" d="M 512.691406 589.292969 L 497.320312 589.292969 L 497.320312 573.929688 L 512.691406 573.929688 L 512.691406 589.292969 " fill-opacity="1" fill-rule="nonzero"/><path fill="#f9bb4b" d="M 543.433594 589.292969 L 528.0625 589.292969 L 528.0625 573.929688 L 543.433594 573.929688 L 543.433594 589.292969 " fill-opacity="1" fill-rule="nonzero"/><path fill="#f9bb4b" d="M 574.175781 589.292969 L 558.804688 589.292969 L 558.804688 573.929688 L 574.175781 573.929688 L 574.175781 589.292969 " fill-opacity="1" fill-rule="nonzero"/><path fill="#f9bb4b" d="M 604.917969 589.292969 L 589.546875 589.292969 L 589.546875 573.929688 L 604.917969 573.929688 L 604.917969 589.292969 " fill-opacity="1" fill-rule="nonzero"/><path fill="#2d75bb" d="M 474.265625 550.886719 L 335.925781 550.886719 L 335.925781 458.722656 L 474.265625 458.722656 L 474.265625 550.886719 " fill-opacity="1" fill-rule="nonzero"/><path fill="#f4f4e6" d="M 412.78125 550.886719 L 397.410156 550.886719 L 397.410156 458.722656 L 412.78125 458.722656 L 412.78125 550.886719 " fill-opacity="1" fill-rule="nonzero"/><path fill="#f4f4e6" d="M 382.039062 497.125 L 366.667969 497.125 L 366.667969 481.761719 L 382.039062 481.761719 L 382.039062 497.125 " fill-opacity="1" fill-rule="nonzero"/><path fill="#f4f4e6" d="M 443.523438 497.125 L 428.152344 497.125 L 428.152344 481.761719 L 443.523438 481.761719 L 443.523438 497.125 " fill-opacity="1" fill-rule="nonzero"/><path fill="#50b4f8" d="M 474.265625 458.722656 L 335.925781 458.722656 L 335.925781 428 L 474.265625 428 L 474.265625 458.722656 " fill-opacity="1" fill-rule="nonzero"/><g clip-path="url(#26154deafe)"><path fill="#b11e48" d="M 335.925781 235.984375 L 205.273438 312.792969 L 182.214844 312.792969 L 182.214844 282.070312 L 197.585938 282.070312 L 335.925781 197.582031 L 335.925781 235.984375 " fill-opacity="1" fill-rule="nonzero"/></g><path fill="#cfdfe8" d="M 335.925781 259.027344 L 335.925781 235.984375 L 205.273438 312.792969 L 205.273438 550.886719 L 335.925781 550.886719 L 335.925781 428 L 474.265625 428 L 474.265625 550.886719 L 604.917969 550.886719 L 604.917969 374.234375 L 335.925781 259.027344 " fill-opacity="1" fill-rule="nonzero"/><path fill="#b11e48" d="M 335.925781 259.027344 L 604.917969 374.234375 L 627.976562 374.234375 L 627.976562 343.511719 L 612.605469 343.511719 L 335.925781 228.304688 L 335.925781 259.027344 " fill-opacity="1" fill-rule="nonzero"/><path fill="#dd3e46" d="M 312.871094 343.511719 L 289.8125 343.511719 L 289.8125 320.472656 L 259.070312 320.472656 L 259.070312 343.511719 L 236.015625 343.511719 L 236.015625 374.234375 L 259.070312 374.234375 L 259.070312 397.277344 L 289.8125 397.277344 L 289.8125 374.234375 L 312.871094 374.234375 L 312.871094 343.511719 " fill-opacity="1" fill-rule="nonzero"/><path fill="#50b4f8" d="M 305.183594 489.445312 L 236.015625 489.445312 L 236.015625 443.359375 L 305.183594 443.359375 L 305.183594 489.445312 " fill-opacity="1" fill-rule="nonzero"/><path fill="#50b4f8" d="M 574.175781 489.445312 L 505.007812 489.445312 L 505.007812 443.359375 L 574.175781 443.359375 L 574.175781 489.445312 " fill-opacity="1" fill-rule="nonzero"/><path fill="#2d75bb" d="M 305.183594 520.167969 L 236.015625 520.167969 L 236.015625 489.445312 L 305.183594 489.445312 L 305.183594 520.167969 " fill-opacity="1" fill-rule="nonzero"/><path fill="#2d75bb" d="M 574.175781 520.167969 L 505.007812 520.167969 L 505.007812 489.445312 L 574.175781 489.445312 L 574.175781 520.167969 " fill-opacity="1" fill-rule="nonzero"/><path fill="#ffffff" d="M 453.582031 370.394531 C 456.824219 367.574219 458.894531 363.496094 458.894531 358.875 C 458.894531 350.382812 452.019531 343.511719 443.523438 343.511719 C 435.027344 343.511719 428.152344 350.382812 428.152344 358.875 L 382.039062 358.875 C 382.039062 350.382812 375.164062 343.511719 366.667969 343.511719 C 358.171875 343.511719 351.296875 350.382812 351.296875 358.875 C 351.296875 363.496094 353.367188 367.574219 356.609375 370.394531 C 353.367188 373.214844 351.296875 377.296875 351.296875 381.917969 C 351.296875 390.40625 358.171875 397.277344 366.667969 397.277344 C 372.34375 397.277344 377.234375 394.15625 379.90625 389.597656 L 430.285156 389.597656 C 432.957031 394.15625 437.847656 397.277344 443.523438 397.277344 C 452.019531 397.277344 458.894531 390.40625 458.894531 381.917969 C 458.894531 377.296875 456.824219 373.214844 453.582031 370.394531 " fill-opacity="1" fill-rule="nonzero"/></svg>