<svg xmlns="http://www.w3.org/2000/svg" width="1080" id="medical" height="1080" version="1.0" viewBox="0 0 810 810"><defs><clipPath id="a"><path d="M335 581h140v31.332H335Zm0 0"/></clipPath><clipPath id="b"><path d="M182 550h154v62.332H182Zm0 0"/></clipPath><clipPath id="c"><path d="M474 550h154v62.332H474Zm0 0"/></clipPath><clipPath id="d"><path d="M182 197.582h154V313H182Zm0 0"/></clipPath></defs><path fill="#512623" d="M474.266 581.61h-138.34v-30.723h138.34v30.722"/><g clip-path="url(#a)"><path fill="#66342e" d="M474.266 612.332h-138.34v-30.723h138.34v30.723"/></g><g clip-path="url(#b)"><path fill="#d3843d" d="M335.926 612.332H182.215v-61.445h153.71v61.445"/></g><path fill="#f9bb4b" d="M220.645 589.29h-15.372v-15.36h15.372v15.36M251.387 589.29h-15.371v-15.36h15.37v15.36M282.129 589.29h-15.371v-15.36h15.37v15.36M312.871 589.29H297.5v-15.36h15.371v15.36"/><g clip-path="url(#c)"><path fill="#d3843d" d="M627.977 612.332H474.266v-61.445h153.71v61.445"/></g><path fill="#f9bb4b" d="M512.691 589.29h-15.37v-15.36h15.37v15.36M543.434 589.29h-15.371v-15.36h15.37v15.36M574.176 589.29h-15.371v-15.36h15.37v15.36M604.918 589.29h-15.371v-15.36h15.371v15.36"/><path fill="#2d75bb" d="M474.266 550.887h-138.34v-92.164h138.34v92.164"/><path fill="#f4f4e6" d="M412.781 550.887h-15.37v-92.164h15.37v92.164M382.04 497.125h-15.372v-15.363h15.371v15.363M443.523 497.125h-15.37v-15.363h15.37v15.363"/><path fill="#50b4f8" d="M474.266 458.723h-138.34V428h138.34v30.723"/><g clip-path="url(#d)"><path fill="#b11e48" d="M335.926 235.984 205.273 312.79h-23.058V282.07h15.37l138.34-84.488v38.402"/></g><path fill="#cfdfe8" d="M335.926 259.027v-23.043L205.273 312.79v238.098h130.653V428h138.34v122.887h130.652V374.234L335.926 259.027"/><path fill="#b11e48" d="m335.926 259.027 268.992 115.207h23.059v-30.722h-15.372l-276.68-115.207v30.722"/><path fill="#dd3e46" d="M312.871 343.512h-23.058v-23.04H259.07v23.04h-23.054v30.722h23.054v23.043h30.743v-23.043h23.058v-30.722"/><path fill="#50b4f8" d="M305.184 489.445h-69.168V443.36h69.168v46.086M574.176 489.445h-69.168V443.36h69.168v46.086"/><path fill="#2d75bb" d="M305.184 520.164h-69.168v-30.719h69.168v30.72M574.176 520.164h-69.168v-30.719h69.168v30.72"/><path fill="#fff" d="M453.582 370.395c3.242-2.82 5.313-6.899 5.313-11.52 0-8.492-6.875-15.363-15.372-15.363-8.496 0-15.37 6.87-15.37 15.363h-46.114c0-8.492-6.875-15.363-15.371-15.363s-15.371 6.87-15.371 15.363c0 4.621 2.07 8.7 5.312 11.52-3.242 2.82-5.312 6.902-5.312 11.52 0 8.491 6.875 15.362 15.371 15.362 5.676 0 10.566-3.12 13.238-7.68h50.38c2.671 4.56 7.562 7.68 13.237 7.68 8.497 0 15.372-6.87 15.372-15.363 0-4.617-2.07-8.7-5.313-11.52"/></svg>