<svg xmlns="http://www.w3.org/2000/svg" xmlns:xlink="http://www.w3.org/1999/xlink" width="1080" zoomAndPan="magnify" viewBox="0 0 810 809.999993" height="1080" preserveAspectRatio="xMidYMid meet" version="1.0"><defs><clipPath id="f6b42c3a1c"><path d="M 152.480469 180.574219 L 657.230469 180.574219 L 657.230469 352 L 152.480469 352 Z M 152.480469 180.574219 " clip-rule="nonzero"/></clipPath><clipPath id="63530143ac"><path d="M 166.40625 593.671875 L 643.308594 593.671875 L 643.308594 629.074219 L 166.40625 629.074219 Z M 166.40625 593.671875 " clip-rule="nonzero"/></clipPath><clipPath id="2ba8e6c0f2"><path d="M 200 180.574219 L 613 180.574219 L 613 559 L 200 559 Z M 200 180.574219 " clip-rule="nonzero"/></clipPath></defs><rect x="-81" width="972" fill="#ffffff" y="-80.999999" height="971.999992" fill-opacity="1"/><rect x="-81" width="972" fill="#ffffff" y="-80.999999" height="971.999992" fill-opacity="1"/><rect x="-81" width="972" fill="#bee1e7" y="-80.999999" height="971.999992" fill-opacity="1"/><g clip-path="url(#f6b42c3a1c)"><path fill="#cf2f3c" d="M 404.855469 180.574219 L 152.554688 351.460938 L 657.15625 351.460938 Z M 404.855469 180.574219 " fill-opacity="1" fill-rule="nonzero"/></g><path fill="#f8d25d" d="M 404.855469 219.117188 L 207.8125 351.460938 L 207.8125 609.472656 L 601.898438 609.472656 L 601.898438 351.460938 L 404.855469 219.117188 " fill-opacity="1" fill-rule="nonzero"/><path fill="#192c37" d="M 466.59375 593.6875 L 343.117188 593.6875 L 343.117188 454.289062 L 466.59375 454.289062 L 466.59375 593.6875 " fill-opacity="1" fill-rule="nonzero"/><g clip-path="url(#63530143ac)"><path fill="#cba34d" d="M 643.191406 629.085938 L 166.519531 629.085938 L 166.519531 593.6875 L 643.191406 593.6875 L 643.191406 629.085938 " fill-opacity="1" fill-rule="nonzero"/></g><path fill="#192c37" d="M 375.125 342.371094 C 380.214844 349.886719 379.855469 359.019531 374.316406 362.773438 C 368.777344 366.523438 360.15625 363.472656 355.0625 355.957031 C 349.972656 348.441406 350.332031 339.304688 355.871094 335.554688 C 361.414062 331.800781 370.03125 334.855469 375.125 342.371094 " fill-opacity="1" fill-rule="nonzero"/><path fill="#192c37" d="M 402.558594 318.394531 C 404.519531 328.953125 399.800781 338.683594 392.015625 340.125 C 384.234375 341.570312 376.335938 334.183594 374.378906 323.621094 C 372.417969 313.0625 377.136719 303.332031 384.917969 301.890625 C 392.703125 300.445312 400.601562 307.832031 402.558594 318.394531 " fill-opacity="1" fill-rule="nonzero"/><path fill="#192c37" d="M 438.207031 342.371094 C 433.113281 349.886719 433.472656 359.019531 439.015625 362.773438 C 444.550781 366.523438 453.171875 363.472656 458.265625 355.957031 C 463.359375 348.441406 462.996094 339.304688 457.457031 335.554688 C 451.917969 331.800781 443.296875 334.855469 438.207031 342.371094 " fill-opacity="1" fill-rule="nonzero"/><path fill="#192c37" d="M 410.769531 318.394531 C 408.808594 328.953125 413.527344 338.683594 421.3125 340.125 C 429.09375 341.570312 436.992188 334.183594 438.949219 323.621094 C 440.910156 313.0625 436.191406 303.332031 428.410156 301.890625 C 420.625 300.445312 412.730469 307.832031 410.769531 318.394531 " fill-opacity="1" fill-rule="nonzero"/><path fill="#192c37" d="M 430.945312 370.433594 C 429.011719 370.367188 427.148438 370.640625 425.410156 371.195312 C 425.417969 370.9375 425.425781 370.683594 425.425781 370.425781 C 425.425781 357.425781 416.867188 346.882812 406.3125 346.882812 C 395.753906 346.882812 387.195312 357.425781 387.195312 370.425781 C 387.195312 370.683594 387.203125 370.9375 387.210938 371.195312 C 385.472656 370.640625 383.613281 370.367188 381.675781 370.433594 C 373.175781 370.726562 366.234375 377.609375 365.882812 386.105469 C 365.496094 395.464844 372.96875 403.171875 382.246094 403.171875 C 387.921875 403.171875 393.332031 395.277344 406.3125 395.277344 C 418.347656 395.277344 424.695312 403.171875 430.375 403.171875 C 439.648438 403.171875 447.125 395.464844 446.738281 386.105469 C 446.386719 377.609375 439.445312 370.726562 430.945312 370.433594 " fill-opacity="1" fill-rule="nonzero"/><g clip-path="url(#2ba8e6c0f2)"><path stroke-linecap="butt" transform="matrix(0.0461667, 0, 0, -0.0461562, 152.554933, 629.087388)" fill="none" stroke-linejoin="miter" d="M 7142.085212 5993.688097 C 7142.085212 5089.151273 6408.753871 4355.823094 5504.168042 4355.823094 C 4599.582214 4355.823094 3866.250872 5089.151273 3866.250872 5993.688097 C 3866.250872 6898.309552 4599.582214 7631.637732 5504.168042 7631.637732 C 6408.753871 7631.637732 7142.085212 6898.309552 7142.085212 5993.688097 Z M 7142.085212 5993.688097 " stroke="#192c37" stroke-width="200" stroke-opacity="1" stroke-miterlimit="10"/></g><path fill="#192c37" d="M 316.007812 414.292969 L 236.175781 414.292969 L 236.175781 515.875 L 316.007812 515.875 L 316.007812 414.292969 " fill-opacity="1" fill-rule="nonzero"/><path fill="#bee1e7" d="M 250.023438 502.027344 L 250.023438 428.136719 L 302.160156 428.136719 L 302.160156 502.027344 L 250.023438 502.027344 " fill-opacity="1" fill-rule="nonzero"/><path fill="#192c37" d="M 573.539062 414.292969 L 493.703125 414.292969 L 493.703125 515.875 L 573.539062 515.875 L 573.539062 414.292969 " fill-opacity="1" fill-rule="nonzero"/><path fill="#bee1e7" d="M 507.554688 502.027344 L 507.554688 428.136719 L 559.6875 428.136719 L 559.6875 502.027344 L 507.554688 502.027344 " fill-opacity="1" fill-rule="nonzero"/></svg>