<svg xmlns="http://www.w3.org/2000/svg" id="shelter" width="1080" height="1080" version="1.0" viewBox="0 0 810 810"><defs><clipPath id="a"><path d="M152.48 180.574h504.75V352H152.48Zm0 0"/></clipPath><clipPath id="b"><path d="M166.406 593.672H643.31v35.402H166.406Zm0 0"/></clipPath><clipPath id="c"><path d="M200 180.574h413V559H200Zm0 0"/></clipPath></defs><g clip-path="url(#a)"><path fill="#cf2f3c" d="m404.855 180.574-252.3 170.887h504.601Zm0 0"/></g><path fill="#f8d25d" d="M404.855 219.117 207.812 351.461v258.012h394.086V351.46L404.855 219.117"/><path fill="#192c37" d="M466.594 593.688H343.117V454.288h123.477v139.399"/><g clip-path="url(#b)"><path fill="#cba34d" d="M643.191 629.086H166.52v-35.399H643.19v35.399"/></g><path fill="#192c37" d="M375.125 342.371c5.09 7.516 4.73 16.649-.809 20.402-5.539 3.75-14.16.7-19.253-6.816-5.09-7.516-4.731-16.652.808-20.402 5.543-3.754 14.16-.7 19.254 6.816M402.559 318.395c1.96 10.558-2.758 20.289-10.543 21.73-7.782 1.445-15.68-5.941-17.637-16.504-1.961-10.558 2.758-20.289 10.539-21.73 7.785-1.446 15.684 5.941 17.64 16.504M438.207 342.371c-5.094 7.516-4.734 16.649.809 20.402 5.535 3.75 14.156.7 19.25-6.816 5.093-7.516 4.73-16.652-.809-20.402-5.539-3.754-14.16-.7-19.25 6.816M410.77 318.395c-1.961 10.558 2.757 20.289 10.543 21.73 7.78 1.445 15.68-5.941 17.636-16.504 1.961-10.558-2.758-20.289-10.539-21.73-7.785-1.446-15.68 5.941-17.64 16.504M430.945 370.434a16.328 16.328 0 0 0-5.535.761c.008-.257.016-.511.016-.77 0-13-8.559-23.542-19.113-23.542-10.56 0-19.118 10.543-19.118 23.543 0 .258.008.512.016.77a16.314 16.314 0 0 0-5.535-.762c-8.5.293-15.442 7.175-15.793 15.671-.387 9.36 7.086 17.067 16.363 17.067 5.676 0 11.086-7.895 24.067-7.895 12.035 0 18.382 7.895 24.062 7.895 9.273 0 16.75-7.707 16.363-17.067-.351-8.496-7.293-15.378-15.793-15.671"/><g clip-path="url(#c)"><path fill="none" stroke="#192c37" stroke-miterlimit="10" stroke-width="200" d="M7142.085 5993.69c0-904.536-733.331-1637.864-1637.917-1637.864-904.586 0-1637.917 733.328-1637.917 1637.865 0 904.621 733.331 1637.95 1637.917 1637.95 904.586 0 1637.917-733.329 1637.917-1637.95Zm0 0" transform="matrix(.04617 0 0 -.04616 152.555 629.088)"/></g><path fill="#192c37" d="M316.008 414.293h-79.832v101.582h79.832V414.293"/><path fill="#bee1e7" d="M250.023 502.027v-73.886h52.137v73.886h-52.137"/><path fill="#192c37" d="M573.54 414.293h-79.837v101.582h79.836V414.293"/><path fill="#bee1e7" d="M507.555 502.027v-73.886h52.132v73.886h-52.132"/></svg>